<?xml version="1.0" encoding="UTF-8" standalone="no"?>
<svg
   xmlns:dc="http://purl.org/dc/elements/1.1/"
   xmlns:cc="http://creativecommons.org/ns#"
   xmlns:rdf="http://www.w3.org/1999/02/22-rdf-syntax-ns#"
   xmlns:svg="http://www.w3.org/2000/svg"
   xmlns="http://www.w3.org/2000/svg"
   viewBox="0 0 611.20001 382.38666"
   height="382.38666"
   width="611.20001"
   xml:space="preserve"
   id="svg2"
   version="1.1"><metadata
     id="metadata8"><rdf:RDF><cc:Work
         rdf:about=""><dc:format>image/svg+xml</dc:format><dc:type
           rdf:resource="http://purl.org/dc/dcmitype/StillImage" /></cc:Work></rdf:RDF></metadata><defs
     id="defs6" /><g
     transform="matrix(1.3333333,0,0,-1.3333333,0,382.38667)"
     id="g10"><g
       transform="scale(0.1)"
       id="g12"><path
         id="path14"
         style="fill:#231f20;fill-opacity:1;fill-rule:nonzero;stroke:none"
         d="m 2325.07,121.379 c 16.35,0.93 32.71,2.793 49.05,2.641 73.07,-0.661 145.63,-10.711 219.23,5.152 53.58,11.539 109.95,9.879 164.98,15.109 34.06,3.25 67.95,8.391 101.91,12.68 50,6.309 100.97,8.469 149.77,19.879 76.99,17.992 152.47,42.371 228.71,63.621 16.72,4.66 34.11,6.891 50.89,11.359 15.85,4.231 31.23,10.149 46.93,14.961 22.57,6.918 46.01,11.66 67.64,20.758 21.86,9.191 41.15,24.492 63.01,33.703 55.34,23.34 102.81,58.949 153.15,90.567 58.62,36.82 123.25,64.582 186.76,92.921 60.53,27.008 116.41,60.36 166.07,104.059 9.28,8.172 16.51,18.633 25.44,27.262 27.77,26.82 57.05,52.168 83.59,80.14 31.17,32.84 65.03,64.739 88.64,102.7 26,41.808 54.55,80.168 86.64,117.359 26.07,30.199 42.59,68.46 65.22,101.88 21.99,32.47 41.96,65.47 46.55,105.2 1.73,15.02 -0.48,30.5 1.24,45.52 2.2,19.31 2.63,40.23 10.68,57.2 26.21,55.25 54.23,109.74 84.15,163.06 17.9,31.9 2.08,149.68 -26.95,175.96 -15.81,14.32 -32.59,27.68 -47.41,42.95 -31.85,32.83 -73.35,31.45 -113.89,34.2 -13.57,0.92 -27.18,1.44 -40.69,2.89 -16.97,1.81 -31.62,-0.11 -35.64,-15.61 -28.88,1.97 -55.69,3.41 -82.4,5.92 -5.6,0.52 -10.82,4.95 -16.22,7.57 3.62,5.14 6.12,12.7 11.06,14.99 21.16,9.83 28.23,29.61 40.59,47.12 37.23,52.75 45.3,119.15 88.62,169.68 41.82,48.78 74.3,105.58 110.74,158.95 25.21,36.94 49.75,74.35 75.62,110.82 5.14,7.24 15.71,16.52 22.51,15.6 25.21,-3.42 50.38,-9.2 74.58,-17.12 14.53,-4.76 10.18,-15.74 2.19,-25.84 -20.52,-25.92 -40.8,-52.04 -60.32,-78.7 -20.3,-27.72 -37.24,-58.23 -59.76,-83.9 -63.42,-72.29 -117.72,-150.74 -164.4,-234.49 -16.02,-28.74 -7.32,-41.19 26,-40.8 16.5,0.19 32.93,3.85 49.46,4.96 56.69,3.79 106.25,-19.73 156.33,-41.34 13.05,-5.63 27.83,-8.16 39.68,-15.56 70.69,-44.13 84.62,-137.62 52.83,-202.91 -16.95,-34.82 -29.45,-73.53 -35.02,-111.79 -10.65,-73.21 -38.56,-139.18 -70.25,-204.69 -11.04,-22.83 -15.57,-48.71 -25.2,-72.32 -13.66,-33.49 -28,-66.818 -44.36,-99.048 -24.92,-49.11 -51.69,-97.293 -77.98,-145.704 -5.44,-10.039 -11.07,-20.339 -18.52,-28.859 -36.87,-42.098 -74.84,-83.25 -111.12,-125.84 -5.12,-6 -133.72,-119.66 -138.39,-115.32 -16.81,-13.957 -35.14,-27.328 -51.3,-42.938 C 3931.75,436.18 3854.6,397.5 3772.39,366.922 c -44.92,-16.723 -89.16,-35.274 -133.89,-52.551 -15.43,-5.961 -31.58,-10.062 -47.05,-15.941 -27.42,-10.41 -54.6,-21.45 -81.82,-32.371 -41.41,-16.61 -83.39,-31.969 -123.93,-50.489 -28.74,-13.129 -53.98,-34.988 -83.47,-45.191 -59.11,-20.438 -120.25,-34.957 -180.18,-53.137 -32.84,-9.961 -64.2,-25.6717 -97.5,-33.0623 -65,-14.418 -130.93,-24.6211 -196.39,-37.0313 C 2810.28,43.75 2792.92,36.6602 2774.96,34.7305 2665.96,23 2557.05,9.28906 2447.73,2.28906 2376.81,-2.25 2305.04,0.609375 2233.99,5.26953 2104.64,13.7695 1975.49,25.5 1846.36,37.1094 c -41.86,3.7617 -83.65,9.8594 -124.99,17.5117 -87.95,16.2891 -177.35,28.3477 -262.77,53.5779 -62.92,18.59 -129.76,26.442 -188.52,60.871 -31.09,18.211 -67.25,28.52 -102.1,39.192 -14.69,4.5 -109.98,37.008 -142.2,49.468 -64.768,25.032 -132.776,42.821 -200.639,58.379 -85.598,19.641 -164.36,55.86 -243.871,90.832 -59.016,25.95 -118.848,50.368 -176.239,79.559 -25.117,12.77 -49.394,32.621 -52.644,65.539 -2.164,21.93 12.324,25.551 29.758,24.352 4.078,-0.282 9.449,-3.832 11.914,-2.262 43.961,28.09 70.461,-14.758 104.73,-25.418 58.231,-18.121 110.012,-49.152 162.941,-78.641 27.989,-15.59 62.454,-19.32 93.696,-29.328 50.851,-16.301 102.902,-30.023 151.762,-51.062 47.671,-20.52 89.656,-55.758 138.312,-72.16 73.06,-24.61 149.76,-38.438 224.93,-56.77 4.01,-0.969 8.35,-0.66 12.34,-1.68 42.73,-10.98 86.65,-18.769 127.87,-33.898 78.97,-28.992 162.26,-36.613 243.59,-53.262 56.19,-11.512 114.65,-11.769 172.01,-17.93 60.05,-6.449 119.97,-14.179 180.01,-20.839 25.39,-2.809 50.9,-5.602 76.39,-6.071 35.28,-0.629 71.25,-3.07 105.73,2.539 47.22,7.692 91.26,-5.468 137.03,-8.207 2.1,0.118 -0.33,-0.023 -0.33,-0.023" /><path
         id="path16"
         style="fill:#231f20;fill-opacity:1;fill-rule:nonzero;stroke:none"
         d="m 3417.38,1614.68 c 2.23,1.3 4.47,2.61 6.7,3.92 -2.4,9.25 -4.27,18.68 -7.28,27.74 -21.34,64.32 -43.29,128.45 -64.33,192.87 -20.34,62.28 -39.43,124.97 -59.85,187.23 -12.36,37.69 -24.24,75.72 -39.81,112.11 -25.37,59.29 -51.92,118.2 -81.07,175.7 -29.16,57.5 -60.46,114.09 -94.03,169.12 -22.34,36.62 -54.38,67.59 -74.76,105.07 -27.16,49.94 -57.46,96.84 -95.04,139.22 -15.02,16.95 -28.95,45.72 -45.67,47.48 -19.77,2.09 -42.33,-18.62 -63.13,-30.43 -79.33,-45.07 -159.35,-89.01 -237.38,-136.25 -89.36,-54.08 -176.92,-111.14 -265.19,-167.02 -62.07,-39.3 -125.5,-76.67 -185.48,-118.94 -39,-27.49 -71.74,-63.69 -109.52,-93.11 -18.62,-14.5 -43.32,-20.9 -63.49,-33.75 -43.1,-27.46 -84.96,-56.85 -127.48,-85.23 -26.82,-17.9 -54.47,-34.64 -80.48,-53.62 -6.53,-4.76 -8.19,-16.17 -12.09,-24.52 7.63,-1.53 15.35,-4.67 22.87,-4.24 14.84,0.86 29.78,6.42 44.3,5.23 46.25,-3.77 92.38,-9.38 138.47,-14.97 37.9,-4.61 75.54,-12.1 113.56,-14.9 51.04,-3.75 102.48,-2.25 153.46,-6.54 80.72,-6.8 161.38,-15.15 241.7,-25.61 39.24,-5.11 77.59,-16.78 116.46,-24.94 65.63,-13.76 131.19,-27.9 197.06,-40.43 109.65,-20.86 214.2,-58.65 318.76,-95.95 34.83,-12.42 66.03,-34.68 100.37,-48.88 71.83,-29.69 142.16,-61.93 205.77,-107.06 16.52,-11.72 31.12,-26.13 46.6,-39.3 z m 11.91,-61.42 c -58.4,43.63 -115.74,89.27 -177.55,127.61 -91.16,56.54 -189.29,97.88 -295.65,118.97 -52.54,10.43 -103.31,29.48 -155.63,41.35 -117.82,26.72 -230.86,74.59 -354.53,76.25 -41.96,0.56 -83.62,13.54 -125.67,18.92 -58.51,7.48 -117.14,14.65 -175.93,19.22 -77.85,6.06 -155.88,11.84 -233.9,13.2 -53.56,0.93 -107.25,-5.97 -160.89,-9.18 -22.31,-1.33 -44.65,-3.25 -66.96,-2.95 -20.85,0.28 -36.85,-5.08 -53.81,-19.37 -27.66,-23.31 -59.71,-41.46 -90.21,-61.31 -35.08,-22.84 -70.13,-45.79 -105.96,-67.44 -15.42,-9.32 -32.73,-23.72 -48,2.73 -2.45,4.25 -13.45,3.57 -20.76,5.22 -12.37,32.33 -2.71,56.74 27.41,69.06 2.89,1.18 6.68,3.59 7.39,6.16 9.95,36.34 45.23,46.57 69.8,67.6 20.68,17.71 44.2,32.13 64.67,50.06 82.36,72.12 180.39,119.73 271.91,177.65 52.42,33.17 98.09,77.01 146.71,116.16 8.29,6.69 16.08,13.99 24.11,21.01 82.67,72.17 172.9,133.2 268.53,187.05 34.35,19.35 62.2,50.31 96.66,69.39 72.28,40.01 147.53,74.63 220.45,113.54 37.91,20.23 73.25,45.25 110.14,67.44 43.75,26.32 87.96,51.88 131.9,77.88 15.54,9.2 30.09,20.75 46.65,27.27 7.62,3 22.88,-0.21 28.01,-6.25 36.09,-42.52 70.2,-86.71 105.51,-129.91 10.33,-12.64 23.95,-22.72 33.56,-35.82 36.16,-49.3 73.68,-97.86 106.18,-149.54 37.05,-58.92 68.77,-121.16 103.76,-181.41 24.48,-42.16 50.68,-83.32 75.78,-125.12 3.67,-6.13 5.94,-13.22 8.09,-20.1 6.07,-19.43 8.12,-41.13 18.18,-58.13 47.77,-80.77 84.48,-166.34 115.64,-254.49 35.82,-101.3 71.78,-202.57 106.32,-304.32 19.78,-58.29 30.72,-118.52 34,-180.27 5.48,-102.81 13.59,-205.49 18.18,-308.34 2.22,-49.7 -1.96,-99.66 -1.59,-149.491 0.46,-63.039 1.46,-126.118 4.47,-189.079 1.66,-34.851 -15.14,-69.398 1.41,-104.859 5.66,-12.141 -35.5,-41.332 -59.09,-42.601 -16.11,-0.872 -31.08,4.289 -33.65,22.492 -2.77,19.609 -5.43,40.078 -2.83,59.457 8.65,64.461 -2.81,127.32 -10.05,190.812 -8.52,74.731 -13.14,149.899 -20.07,224.819 -3.81,41.14 -8.97,82.15 -13.35,123.24 -1.14,10.69 -4.32,22.11 -1.91,32.07 10.65,43.98 1.05,85.24 -11.77,127.07 -11.36,37.05 -14.85,138.2 -25.66,146.28" /><path
         id="path18"
         style="fill:#231f20;fill-opacity:1;fill-rule:nonzero;stroke:none"
         d="m 189.719,782.531 c 0,-8.293 -1.336,-16.883 0.453,-24.769 1.277,-5.614 6.266,-14.09 10.469,-14.641 14.367,-1.891 29.308,-2.359 43.695,-0.609 41.762,5.07 83.258,12.379 125.043,17.136 55.941,6.383 113.008,6.512 167.914,17.614 126.98,25.679 257.434,38.09 377.609,92.097 24.586,11.051 50.493,19.301 74.571,31.289 14.977,7.473 26.917,20.832 41.517,29.301 58.68,34.02 117.29,68.262 177.04,100.331 56.77,30.48 114.55,59.16 172.63,87.09 36.36,17.49 66.71,38.36 73.16,82.2 1.25,8.44 8.28,15.88 11.62,24.19 8.21,20.49 20.49,40.73 22.69,61.95 4.4,42.37 -22.78,75.43 -40.87,110.98 -7.37,14.48 -11.4,30.63 -17.88,45.63 -5.7,13.2 -9.94,28.6 -19.6,38.25 -35.61,35.62 -72.7,69.81 -110.29,103.36 -15.84,14.13 -32.69,29.47 -51.93,36.97 -41.46,16.17 -83.93,32.36 -127.48,39.9 -69.77,12.08 -140.666,22.51 -211.236,23.58 -65.574,1 -131.367,-10.92 -197.02,-17.6 -39.613,-4.02 -79.691,-8.14 -114.136,-30.21 -11.387,-7.3 -18.418,-21.14 -28.258,-31.19 -6.903,-7.05 -14.961,-17.63 -22.907,-18 -15.656,-0.74 -19.945,-9.71 -23.507,-20.99 -7.993,-25.3 -14.102,-51.27 -23.43,-76.05 -27.688,-73.52 -53.813,-147.82 -85.805,-219.47 C 385.859,1208.34 350.719,1149.04 318.93,1088.23 289.074,1031.11 258.652,974.262 229.957,916.57 208.992,874.422 186.281,832.289 189.719,782.531 Z M 535.746,2838.18 c 22.977,-18.43 35.359,-8.5 45.363,8.09 12.926,21.43 32.996,20.44 50.145,10.96 18.894,-10.44 30.695,-25.31 35.195,-51.62 5.938,-34.69 -3.254,-63.85 -9.656,-95.61 -4.625,-22.96 -5.18,-48.18 -0.914,-71.16 6.762,-36.45 5.269,-72.51 5.844,-109.04 0.91,-57.9 10.375,-115.78 9.398,-173.56 -0.906,-53.61 -12.496,-106.95 -16.305,-160.64 -9.898,-139.52 -59.043,-271.73 -74.945,-410.08 -2.234,-19.43 -7.023,-38.57 -11.027,-59.98 44.668,10.87 84.847,23.58 126.011,29.97 62.204,9.67 124.965,19.14 187.719,21.03 83.008,2.5 166.106,-3.41 246.026,-30.36 56.41,-19.03 115.59,-32.47 168.48,-58.63 59.41,-29.38 115,-67.72 168.46,-107.29 24.39,-18.06 39.33,-48.7 59.25,-73.07 8.16,-9.98 19.49,-17.48 27.09,-27.78 59.09,-80.06 65.35,-167.05 37.48,-260.65 -21,-70.52 -67.18,-120.16 -121.1,-165.55 -18.8,-15.82 -33.39,-38.26 -54.27,-49.65 -41.28,-22.509 -85.49,-39.669 -128.7,-58.56 -70.5,-30.828 -140.43,-63.141 -211.99,-91.281 -56.09,-22.047 -114.28,-38.758 -171.554,-57.797 -43.965,-14.621 -87.465,-30.953 -132.09,-43.152 -31.773,-8.688 -65.004,-12.219 -97.711,-17.239 -27.84,-4.269 -55.824,-7.672 -83.804,-10.941 -66.426,-7.789 -132.895,-15.25 -199.34,-22.891 -84.688,-9.73 -169.379,-19.41 -254.047,-29.301 -31.949,-3.738 -63.5782,-8.589 -95.4884,2.133 -39.492163,13.27 -51.582,48.649 -25.2578,81.219 59.5625,73.699 112.0192,151.91 159.0782,234.262 38.094,66.668 82.055,129.948 121.723,195.748 11.207,18.59 15.714,41.09 24.695,61.18 8.07,18.04 18.023,35.25 27.219,52.79 17.668,33.7 38.336,66.18 52.441,101.31 25.289,62.97 49.91,126.58 68.715,191.68 18.254,63.2 34.672,126.9 40.117,193.73 5.418,66.45 24.02,131.72 33.988,197.93 6.149,40.82 19.383,79.78 17.071,123.21 -2.457,46.16 11.777,92.97 15.332,139.75 4.136,54.41 5.945,109.1 6.25,163.68 0.285,51.47 -5.063,103.03 -3.637,154.43 1.773,63.85 -5.867,125.81 -23.066,187.12 -7.231,25.79 -11.266,52.48 -18.188,85.61" /><path
         id="path20"
         style="fill:#231f20;fill-opacity:1;fill-rule:nonzero;stroke:none"
         d="m 1884.7,1592.57 c 4.48,-10.97 6.81,-19.72 11.32,-27.16 15.3,-25.27 37.52,-48.19 45.88,-75.45 18.09,-58.97 42.41,-115.57 54.05,-177.39 14.79,-78.49 17.49,-156.4 13.81,-234.98 -2.01,-42.87 -8.88,-85.789 -17.03,-128.02 -10.98,-56.898 -25.47,-113.129 -37.99,-169.738 -1.49,-6.762 -1.82,-14.961 0.87,-20.891 1.11,-2.461 11.69,-1.699 17.68,-0.691 12.26,2.082 24.27,5.629 36.48,8.039 76.4,15.063 152.3,34.391 229.4,43.672 77.1,9.277 155.45,11.859 233.19,11.109 82.95,-0.8 166.45,-2.711 247.66,-24.761 4.93,-1.34 14.96,2.652 17.23,6.98 26.09,49.91 54.71,98.949 75.26,151.141 14.6,37.101 17.65,78.69 26.41,118.16 10.22,46.01 23.32,91.51 30.99,137.92 7.55,45.7 12.22,92.18 13.82,138.46 1.54,44.64 1.72,90.15 -5.4,133.99 -5.39,33.15 -22.6,65.7 -62.36,72.53 -46.53,7.99 -93.2,16.46 -140.17,20.29 -117.46,9.57 -235.08,17.19 -352.7,24.51 -63.81,3.97 -127.73,6.76 -191.64,8.16 -47.04,1.04 -94.24,0.42 -141.21,-2.22 -32.97,-1.84 -65.68,-8.31 -105.55,-13.66 z m -136.67,-2.32 c 15.61,17.29 28.06,32.81 51.02,34.71 90.14,7.45 180.16,16.77 270.41,22.33 63.7,3.93 127.7,3.35 191.57,3.97 75.44,0.73 151.11,4.24 226.29,-0.13 88.47,-5.13 176.97,-11.79 263.15,-38.23 38.86,-11.92 81.73,-11.52 122.94,-14.64 21.72,-1.65 37.84,-5.52 45.16,-29.75 15.75,-52.18 41.5,-101.87 39,-158.36 -1.13,-25.49 -3.43,-51.03 -6.93,-76.32 -11.45,-82.97 -18.95,-166.89 -37.18,-248.39 -13.93,-62.26 -28.51,-125.46 -58.77,-183.659 -15.39,-29.601 -22.74,-63.64 -31.84,-96.191 -13.26,-47.469 -38.4,-87.75 -70.48,-124.328 -19.94,-22.723 -45.81,-19.621 -60.5,7.008 -3.81,6.91 -7.66,16.832 -13.74,18.972 -51.21,18.02 -101.65,38.129 -157.52,39.598 -113.14,2.98 -225.84,3.109 -338.21,-14.469 -54.83,-8.582 -111.46,-6.769 -165.72,-17.492 -46.56,-9.199 -93.01,-25.359 -135.42,-46.598 -24.1,-12.07 -40.8,-39.859 -59.28,-61.883 -11.08,-13.207 -24.6,-20.668 -38.81,-12.976 -7.89,4.258 -9.59,19.41 -14.86,29.226 -3.57,6.633 -7.44,13.782 -13.02,18.512 -13.01,11.02 -15.34,20.988 -1.03,32.481 15.45,12.39 31.59,24.148 45.64,38.007 13.41,13.231 29.46,26.942 35.78,43.684 30.4,80.578 60.98,161.34 85.51,243.816 20.93,70.422 23.73,143.852 15.84,217.372 -2.03,18.91 -3.25,38.81 0.3,57.26 10.68,55.34 -1.38,108.91 -18.87,159.1 -15.81,45.37 -42.44,88.05 -89.63,111.83 -16.77,8.45 -31.12,21.59 -47.3,31.39 -8.89,5.39 -19.29,8.28 -33.5,14.15" /><path
         id="path22"
         style="fill:#231f20;fill-opacity:1;fill-rule:nonzero;stroke:none"
         d="m 4271.82,2197.44 c 27.02,-4.4 47.9,-5.85 67.54,-11.56 19.45,-5.65 22.51,-19.96 7.42,-33.36 -56.17,-49.9 -110.8,-102.03 -170.71,-147.07 -41.21,-30.98 -90.05,-51.88 -135.75,-76.79 -23.12,-12.6 -46.72,-24.32 -70.31,-36.03 -15.46,-7.67 -12.94,-20.11 -12.06,-34.08 3.49,-55.2 9.24,-110.62 7.24,-165.7 -2.38,-65.34 -10.37,-130.6 -18.65,-195.55 -11.83,-92.75 -29.49,-184.85 -38.4,-277.83 -7.84,-81.83 -41.72,-154.34 -68.06,-229.841 -9.5,-27.207 -13.76,-56.609 -25.94,-82.41 -12.42,-26.309 -31.57,-49.457 -48.01,-73.828 -1.16,-1.719 -4.28,-3.039 -6.47,-3 -19.67,0.328 -39.48,-0.25 -58.94,2.039 -12.53,1.48 -18.04,8.679 -15.92,24.48 9.79,72.82 40.3,138.82 64.66,206.91 8.07,22.53 19.24,46.16 18.85,69.11 -1.15,66.86 25.52,128.08 33.58,192.82 11.25,90.48 22.54,180.96 34.19,271.39 6.26,48.55 14.28,96.89 19.44,145.55 1.7,16.07 -1.26,33.29 -5.33,49.15 -5.53,21.52 -30.02,31.5 -50.25,21.33 -37.48,-18.84 -75.9,-36.36 -111.25,-58.69 -34.82,-21.99 -64.66,-5.14 -92.89,8.41 -25.76,12.36 -14.78,65.23 15.69,78.51 38.38,16.73 77.96,30.67 116.63,46.74 44.32,18.42 89.03,36.22 132.08,57.32 45.88,22.49 89.91,48.75 134.99,72.9 15.33,8.21 32.96,12.86 46.88,22.85 50.96,36.57 100.04,75.79 151.38,111.79 25.73,18.04 54.82,31.28 78.37,44.44" /></g></g></svg>