<?xml version="1.0" encoding="utf-8"?>
<!-- Generator: Adobe Illustrator 24.0.0, SVG Export Plug-In . SVG Version: 6.00 Build 0)  -->
<svg version="1.1" id="Layer_1" xmlns="http://www.w3.org/2000/svg" xmlns:xlink="http://www.w3.org/1999/xlink" x="0px" y="0px"
	 viewBox="0 0 500 500" style="enable-background:new 0 0 500 500;" xml:space="preserve">
<style type="text/css">
	.st0{fill:#C52C91;}
</style>
<g transform="translate(0.000000,570.000000) scale(0.100000,-0.100000)">
	<path class="st0" d="M2723.2,5314.6c-11.9-28-51.8-126.7-88.9-219.1c-37.1-92.4-121.8-296.8-186.9-455
		c-172.2-414.4-330.4-798.7-488.6-1186.5c-76.3-186.9-213.5-520.8-304.5-742c-276.5-668.5-282.1-683.2-271.6-711.9
		c2.1-7,9.1-18.2,14.7-24.5c9.8-11.9,49-12.6,639.8-12.6h628.6v-46.2v-46.9l-290.5,3.5l-290.5,3.5l-42.7-75.6l-43.4-74.9l-42.7-4.2
		c-77-7.7-304.5-18.2-520.1-22.4c-168.7-4.2-212.1-7-212.1-14c0-7.7,58.8-224,81.2-298.2c3.5-11.9,69.3-12.6,1258.6-12.6
		c1075.9,0,1258.6,1.4,1279.6,9.8c55.3,23.1,123.2,86.1,183.4,168c53.2,73.5,112.7,217.7,107.8,261.8c-2.1,18.9-2.1,18.9-61.6,18.9
		c-32.9,0-93.1-2.8-134.4-6.3c-53.2-4.2-75.6-3.5-75.6,1.4c0,24.5-600.6,1715-835.1,2349.9c-91,245-123.2,327.6-135.8,340.9
		c-14.7,16.8-35,16.1-44.1-1.4c-6.3-11.9-2.1-25.9,19.6-75.6C2947.2,4266,2999.7,4014,3027,3685c26.6-317.1-5.6-797.3-74.2-1106.7
		c-35-158.2-84.7-318.5-128.1-412.3l-17.5-38.5l-0.7,1610.7c-0.7,1242.5-2.8,1612.1-9.1,1618.4c-4.9,4.9-18.2,8.4-30.8,8.4
		C2745.6,5365,2742.8,5362.2,2723.2,5314.6z M3064.8,1916.8c263.9-26.6,500.5-63.7,608.3-95.9c29.4-9.1,28.7-9.8-73.5-17.5
		c-57.4-4.9-117.6-8.4-133.7-8.4c-16.1,0-113.4,19.6-217,42.7l-187.6,43.4l-127.4-4.2l-128.1-4.2v33.6v34.3l44.1-3.5
		C2873.7,1935.7,2970.3,1925.9,3064.8,1916.8z"/>
</g>
<image style="overflow:visible;enable-background:new    ;" width="100" height="100" id="Background" xlink:href="62DA6FC6.png"  transform="matrix(1.0002 0 0 1.0002 180.5562 270.1921)">
</image>
</svg>
