<?xml version="1.0" encoding="UTF-8" standalone="no"?>
<!-- Generator: Adobe Illustrator 15.0.0, SVG Export Plug-In . SVG Version: 6.00 Build 0)  -->

<svg
   xmlns:dc="http://purl.org/dc/elements/1.1/"
   xmlns:cc="http://creativecommons.org/ns#"
   xmlns:rdf="http://www.w3.org/1999/02/22-rdf-syntax-ns#"
   xmlns:svg="http://www.w3.org/2000/svg"
   xmlns="http://www.w3.org/2000/svg"
   xmlns:sodipodi="http://sodipodi.sourceforge.net/DTD/sodipodi-0.dtd"
   xmlns:inkscape="http://www.inkscape.org/namespaces/inkscape"
   version="1.1"
   id="Layer_1"
   x="0px"
   y="0px"
   width="500px"
   height="500px"
   viewBox="0 0 500 500"
   enable-background="new 0 0 500 500"
   xml:space="preserve"
   sodipodi:docname="Sailboat_twitch.svg"
   inkscape:version="0.92.4 (5da689c313, 2019-01-14)"><metadata
   id="metadata4538"><rdf:RDF><cc:Work
       rdf:about=""><dc:format>image/svg+xml</dc:format><dc:type
         rdf:resource="http://purl.org/dc/dcmitype/StillImage" /><dc:title></dc:title></cc:Work></rdf:RDF></metadata><defs
   id="defs4536" /><sodipodi:namedview
   pagecolor="#ffffff"
   bordercolor="#666666"
   borderopacity="1"
   objecttolerance="10"
   gridtolerance="10"
   guidetolerance="10"
   inkscape:pageopacity="0"
   inkscape:pageshadow="2"
   inkscape:window-width="958"
   inkscape:window-height="1008"
   id="namedview4534"
   showgrid="false"
   inkscape:zoom="1.696"
   inkscape:cx="250"
   inkscape:cy="250"
   inkscape:window-x="-7"
   inkscape:window-y="0"
   inkscape:window-maximized="0"
   inkscape:current-layer="Layer_1" />
<g
   transform="translate(0.000000,570.000000) scale(0.100000,-0.100000)"
   id="g4531"
   style="fill:#6441a4;fill-opacity:1">
	<path
   d="M2723.164,5314.599c-11.904-28.003-51.797-126.699-88.906-219.102c-37.09-92.402-121.797-296.797-186.895-455   c-172.207-414.404-330.4-798.701-488.604-1186.494c-76.299-186.904-213.496-520.801-304.497-742.012   c-276.499-668.496-282.1-683.183-271.602-711.894c2.1-7.002,9.102-18.203,14.697-24.502c9.805-11.904,49.004-12.598,639.805-12.598   h628.599v-46.201v-46.895l-290.498,3.496l-290.503,3.496l-42.7-75.586l-43.398-74.902l-42.7-4.209   c-76.997-7.705-304.497-18.193-520.102-22.393c-168.696-4.209-212.1-7.002-212.1-14.004c0-7.705,58.804-224.004,81.201-298.203   c3.501-11.895,69.302-12.598,1258.603-12.598c1075.889,0,1258.604,1.406,1279.6,9.805   c55.293,23.096,123.203,86.094,183.398,167.998c53.203,73.506,112.695,217.695,107.793,261.797   c-2.09,18.896-2.09,18.896-61.592,18.896c-32.9,0-93.096-2.793-134.404-6.299c-53.203-4.199-75.596-3.506-75.596,1.396   c0,24.502-600.595,1714.995-835.107,2349.897c-90.996,245.005-123.203,327.603-135.801,340.898   c-14.688,16.801-35,16.098-44.092-1.401c-6.299-11.895-2.1-25.898,19.6-75.596c79.805-176.401,132.305-428.404,159.59-757.398   c26.611-317.109-5.586-797.3-74.189-1106.694c-35-158.203-84.697-318.496-128.096-412.305l-17.5-38.496l-0.703,1610.688   c-0.703,1242.5-2.803,1612.099-9.102,1618.398c-4.902,4.902-18.203,8.403-30.801,8.403   C2745.566,5365,2742.763,5362.197,2723.164,5314.599z M3064.765,1916.797c263.896-26.602,500.498-63.701,608.301-95.898   c29.395-9.102,28.691-9.805-73.496-17.5c-57.402-4.902-117.617-8.398-133.711-8.398s-113.398,19.6-216.992,42.695l-187.607,43.398   l-127.393-4.199l-128.105-4.199v33.613v34.287l44.102-3.496C2873.662,1935.703,2970.263,1925.898,3064.765,1916.797z"
   id="path4529"
   style="fill:#6441a4;fill-opacity:1" />
</g>
</svg>