<?xml version="1.0" standalone="no"?>
<!DOCTYPE svg PUBLIC "-//W3C//DTD SVG 1.1//EN" "http://www.w3.org/Graphics/SVG/1.1/DTD/svg11.dtd">
<!--Generator: Xara Designer (www.xara.com), SVG filter version: 6.2.0.0-->
<svg stroke-width="0.501" stroke-linejoin="bevel" fill-rule="evenodd" xmlns:xlink="http://www.w3.org/1999/xlink" xmlns="http://www.w3.org/2000/svg" version="1.1" overflow="visible" width="612pt" height="792pt" viewBox="0 0 612 792">
 <defs>
	</defs>
 <g id="Document" fill="none" stroke="black" font-family="Times New Roman" font-size="16" transform="scale(1 -1)">
  <g id="Spread" transform="translate(0 -792)">
   <g id="Layer 1">
    <mask id="TranspMask">
     <rect x="-10%" y="-10%" width="120%" height="120%" fill="#ffffff" stroke="none"/>
    </mask>
    <g id="Group" stroke="none" mask="url(#TranspMask)">
     <path d="M 196.206,538.694 C 195.609,539.291 194.885,539.375 194.129,539.461 C 193.151,539.578 192.169,539.68 191.2,539.84 C 189.738,540.08 189.072,540.794 188.923,542.237 C 188.821,543.235 188.919,544.232 189.452,545.094 C 189.882,545.787 189.894,546.484 189.906,547.255 C 189.922,548.538 190.06,549.82 190.187,551.099 C 190.23,551.548 190.303,552.029 190.506,552.417 C 190.813,553.007 191.189,553.588 191.648,554.066 C 192.093,554.531 192.721,554.345 193.295,554.288 C 193.192,554.624 193.082,554.959 192.984,555.295 C 192.299,557.676 192.703,559.831 194.553,561.531 C 195.313,562.227 195.787,563.015 196.169,563.93 C 196.606,564.976 197.013,566.057 197.613,567.007 C 198.377,568.215 199.179,569.467 200.223,570.41 C 201.394,571.463 202.178,572.662 202.774,574.074 C 205.537,580.601 209.273,586.561 213.577,592.162 C 221.98,603.1 232.567,611.194 245.387,616.338 C 246.16,616.647 246.905,617.021 247.658,617.375 C 255.661,621.13 264.048,623.647 272.777,624.986 C 274.937,625.313 277.152,625.404 279.342,625.404 C 286.095,625.395 292.823,624.891 299.475,623.718 C 305.077,622.731 310.568,621.279 315.75,618.853 C 320.683,616.541 325.602,614.2 330.528,611.872 C 332.318,611.025 333.998,609.988 335.486,608.694 C 337.718,606.76 339.923,604.796 342.033,602.736 C 345.277,599.565 347.522,595.714 349.369,591.608 C 349.864,590.506 350.484,589.462 351.052,588.399 C 351.555,587.465 352.175,586.578 352.555,585.601 C 353.167,584.019 354.249,582.948 355.699,582.171 C 355.967,582.03 356.233,581.888 356.497,581.738 C 357.455,581.193 358.198,580.449 358.492,579.368 C 358.72,578.533 359.164,577.864 359.759,577.259 C 363.14,573.817 365.574,569.702 367.933,565.553 C 369.241,563.249 370.408,560.866 371.538,558.468 C 372.339,556.767 372.445,554.973 371.781,553.165 C 370.961,550.932 369.894,550.395 367.575,551.074 C 367.286,551.156 366.996,551.243 366.632,551.353 C 366.405,550.86 366.217,550.371 365.963,549.921 C 365.738,549.53 365.515,549.08 365.163,548.839 C 364.056,548.07 362.948,547.255 361.726,546.718 C 360.871,546.341 359.827,546.392 358.751,546.239 C 358.587,545.648 358.454,544.991 358.225,544.368 C 357.628,542.769 356.824,542.264 355.089,542.44 C 349.963,542.966 344.85,543.612 339.718,544.032 C 332.998,544.579 326.27,545.021 319.539,545.392 C 314.553,545.665 309.553,545.832 304.554,545.921 C 297.438,546.044 290.32,546.039 283.2,546.116 C 277.75,546.174 272.298,546.247 266.846,546.358 C 261.62,546.468 256.397,546.629 251.212,545.753 C 250.841,545.69 250.461,545.654 250.091,545.576 C 249.876,545.531 249.672,545.425 249.369,545.312 C 249.25,544.927 249.142,544.492 248.981,544.074 C 248.592,543.054 247.914,542.518 246.739,542.554 C 243.408,542.657 240.075,542.679 236.744,542.761 C 234.473,542.819 232.197,543.065 229.933,542.975 C 227.522,542.876 225.109,542.562 222.719,542.2 C 217.108,541.348 211.516,540.371 205.904,539.534 C 203.89,539.235 201.837,539.165 199.8,539.03 C 199.19,538.991 198.613,538.973 198.078,538.598 C 197.452,538.16 196.749,538.148 196.206,538.694 Z M 150.534,545.212 C 147.447,545.525 146.56,546.444 146.403,548.982 C 146.341,549.987 146.545,550.938 146.951,551.848 C 147.697,553.526 148.475,553.956 150.301,553.855 C 151.578,553.784 152.865,553.76 154.137,553.843 C 157.905,554.08 161.666,554.405 165.434,554.649 C 167.088,554.758 168.753,554.794 170.411,554.796 C 173.28,554.802 176.151,554.759 179.023,554.737 C 180.726,554.718 181.584,554.028 181.743,552.373 C 181.82,551.561 181.734,550.705 181.55,549.911 C 181.232,548.535 180.387,547.702 178.881,547.559 C 175.274,547.218 171.679,546.749 168.07,546.439 C 162.806,545.985 157.534,545.616 152.263,545.229 C 151.515,545.174 150.758,545.213 150.534,545.212 Z M 206.763,549.832 C 208.231,551.252 209.741,552.63 211.21,554.05 C 211.449,554.278 211.578,554.619 211.822,555.014 C 210.352,555.352 209.093,554.934 207.834,554.827 C 207.463,554.796 207.009,554.409 206.797,554.064 C 205.858,552.513 204.991,550.922 203.966,549.111 C 205.266,548.898 206.057,549.149 206.763,549.832 Z M 195.334,552.415 C 195.487,552.644 195.545,552.932 195.7,553.342 C 194.88,553.648 194.155,553.915 193.439,554.181 C 193.847,553.446 194.255,552.705 194.681,551.937 C 194.992,552.158 195.222,552.247 195.334,552.415 Z M 391.299,552.122 C 389.943,552.269 388.589,552.392 387.24,552.564 C 385.63,552.77 384.94,553.423 384.706,554.966 C 384.518,556.188 384.653,557.39 385.198,558.509 C 385.699,559.544 386.484,560.181 387.717,560.057 C 387.792,560.047 387.866,560.052 387.941,560.044 C 392.581,559.375 397.146,560.126 401.701,560.832 C 406.105,561.514 410.488,562.341 414.882,563.09 C 416.22,563.319 417.564,563.569 418.915,563.662 C 419.885,563.73 420.879,563.623 421.841,563.463 C 423.092,563.254 423.811,562.399 424.082,561.187 C 424.393,559.813 424.246,558.477 423.628,557.207 C 423.171,556.262 422.429,555.659 421.374,555.504 C 414.199,554.453 407.156,552.621 399.904,552.017 C 397.013,551.776 394.167,551.9 391.299,552.122 Z M 193.384,554.278 C 193.357,554.283 193.326,554.285 193.295,554.288 C 193.303,554.266 193.308,554.245 193.316,554.228 C 193.357,554.211 193.397,554.197 193.439,554.181 C 193.42,554.214 193.403,554.245 193.384,554.278 Z M 222.134,555.955 C 222.087,556.006 222.036,556.107 221.997,556.102 C 221.87,556.086 221.748,556.031 221.627,555.99 C 221.668,555.933 221.72,555.825 221.751,555.828 C 221.881,555.853 222.007,555.91 222.134,555.955 Z M 257.37,558.674 C 257.306,558.699 257.225,558.71 257.16,558.697 C 257.107,558.686 257.064,558.633 257.017,558.601 C 257.148,558.579 257.277,558.562 257.406,558.543 C 257.394,558.589 257.394,558.665 257.37,558.674 Z M 259.921,558.845 C 259.794,558.853 259.667,558.851 259.539,558.853 C 259.552,558.817 259.558,558.745 259.571,558.742 C 259.698,558.734 259.824,558.736 259.953,558.734 C 259.941,558.772 259.935,558.844 259.921,558.845 Z M 262.261,558.93 L 262.421,558.967 L 262.243,559.034 L 262.261,558.93 Z M 265.231,559.096 C 265.185,559.135 265.141,559.194 265.085,559.209 C 265.026,559.224 264.955,559.194 264.89,559.185 C 264.938,559.144 264.981,559.082 265.035,559.069 C 265.097,559.054 265.166,559.085 265.231,559.096 Z M 267.908,559.314 C 267.713,559.35 267.519,559.384 267.324,559.418 C 267.318,559.39 267.314,559.359 267.309,559.327 C 267.503,559.293 267.697,559.259 267.892,559.222 C 267.897,559.251 267.903,559.286 267.908,559.314 Z M 331.545,563.447 C 330.876,563.772 330.282,564.04 329.549,563.679 C 330.186,563.18 330.817,563.265 331.545,563.447 Z M 151.597,574.153 C 145.331,576.392 139.274,579.152 133.393,582.28 C 132.462,582.776 131.545,583.329 130.707,583.966 C 128.778,585.424 128.069,587.571 128.689,589.805 C 129.01,590.958 129.664,591.848 130.778,592.341 C 131.718,592.758 132.643,592.877 133.591,592.282 C 134.55,591.679 135.559,591.157 136.755,590.483 C 137.786,591.102 138.772,591.072 139.858,590.777 C 142.565,590.043 145.218,589.169 147.761,587.993 C 151.893,586.084 156.234,584.775 160.559,583.41 C 166.036,581.684 171.518,579.989 176.81,577.71 C 178.596,576.94 180.576,576.614 182.471,576.107 C 183.198,575.91 183.92,575.789 184.553,575.281 C 184.932,574.978 185.514,574.885 186.023,574.796 C 186.981,574.631 187.463,574.035 187.677,573.158 C 187.895,572.257 187.876,571.365 187.537,570.483 C 187.007,569.105 186.435,568.651 184.968,568.832 C 183.146,569.062 181.348,568.884 179.54,568.754 C 178.713,568.693 177.87,568.651 177.051,568.731 C 168.358,569.558 159.824,571.214 151.597,574.153 Z M 329.043,576.059 C 328.517,577.237 327.89,577.955 326.823,578.378 C 324.643,579.244 322.475,580.141 320.362,581.155 C 317.933,582.32 315.521,582.562 312.888,581.872 C 307.469,580.449 301.976,579.38 296.364,579.03 C 295.028,578.949 293.698,578.816 292.365,578.707 C 295.339,577.969 298.333,577.682 301.323,577.41 C 304.412,577.127 307.511,576.923 310.609,576.726 C 313.628,576.533 316.654,576.382 319.68,576.23 C 322.738,576.076 325.796,575.773 329.043,576.059 Z M 368.998,582.563 C 368.899,583.154 368.932,583.768 368.91,584.257 C 369.035,584.818 369.093,585.273 369.238,585.704 C 369.666,586.996 370.486,587.799 371.845,588.285 C 382.486,592.088 393.485,594.42 404.6,596.289 C 407.502,596.78 410.416,597.242 413.337,597.642 C 414.678,597.825 416.046,597.8 417.401,597.914 C 418.222,597.983 419.049,598.083 419.855,598.247 C 421.629,598.614 423.389,599.065 425.167,599.411 C 425.9,599.554 426.668,599.557 427.42,599.56 C 428.991,599.56 429.969,598.678 430.452,597.27 C 431.023,595.61 430.831,593.978 429.941,592.465 C 429.282,591.341 428.227,590.766 426.965,590.618 C 425.956,590.5 425.065,590.29 424.46,589.339 C 424.072,588.732 423.387,588.522 422.661,588.577 C 420.872,588.72 419.189,588.19 417.592,587.545 C 412.928,585.661 408.07,584.624 403.111,583.969 C 400.265,583.591 397.413,583.254 394.566,582.876 C 393.443,582.729 392.31,582.587 391.211,582.325 C 386.486,581.193 381.669,580.789 376.849,580.336 C 375.647,580.223 374.444,580.11 373.24,579.999 C 372.863,579.964 372.488,579.898 372.112,579.903 C 370.308,579.931 369.3,580.776 368.998,582.563 Z M 240.006,582.084 C 246.551,584.901 253.316,587.012 260.31,588.382 C 262.607,588.833 264.91,589.257 267.206,589.706 C 268.6,589.978 268.597,589.988 268.725,591.729 C 266.676,592.17 264.65,592.777 262.521,592.854 C 261.007,592.913 259.495,592.942 257.988,593.069 C 256.53,593.191 255.139,593.01 253.755,592.537 C 248.743,590.823 243.937,588.612 239.116,586.44 C 238.652,586.231 238.155,585.928 237.865,585.529 C 237.294,584.747 236.529,584.343 235.676,583.997 C 234.603,583.562 233.835,582.788 233.122,581.576 C 234.568,581.548 235.765,581.588 236.949,581.479 C 238.05,581.378 239.013,581.661 240.006,582.084 Z M 217.77,588.934 C 216.373,587.747 216.373,587.747 216.029,586.564 C 217.871,588.162 217.871,588.162 217.77,588.934 Z M 333.809,588.731 C 333.64,588.94 333.503,589.193 333.294,589.348 C 333.12,589.473 332.982,589.904 332.541,589.478 C 332.836,589.118 333.126,588.765 333.419,588.41 C 333.548,588.519 333.68,588.622 333.809,588.731 Z M 294.05,595.369 C 290.941,596.266 287.699,596.573 284.483,595.663 C 289.07,594.439 293.657,593.212 298.248,591.999 C 298.57,591.915 298.929,591.974 299.683,591.955 C 297.819,593.651 296.006,594.803 294.05,595.369 Z M 178.305,593.234 C 177.948,593.359 177.596,593.501 177.256,593.666 C 170.466,597.007 163.658,600.305 156.898,603.703 C 149.323,607.513 142.052,611.878 134.766,616.21 C 131.647,618.067 128.557,619.976 125.098,621.174 C 124.337,621.437 123.839,622.003 123.592,622.77 C 123.076,624.378 123.25,625.914 124.152,627.344 C 124.639,628.113 125.344,628.502 126.271,628.362 C 126.795,628.285 127.328,628.211 127.825,628.038 C 130.178,627.211 132.534,626.427 134.719,625.158 C 141.847,621.007 148.98,616.863 156.192,612.859 C 161.616,609.85 167.111,606.972 172.408,603.729 C 174.595,602.389 176.963,601.338 179.279,600.22 C 180.61,599.581 181.161,598.543 181.187,597.14 C 181.193,596.836 181.175,596.535 181.172,596.388 C 181.032,595.317 180.8,594.441 180.152,593.744 C 179.651,593.204 179.034,592.974 178.305,593.234 Z M 226.202,594.582 C 231.194,597.873 236.194,601.159 241.172,604.48 C 242.819,605.58 244.538,606.516 246.404,607.177 C 248.044,607.758 249.688,608.328 251.337,608.887 C 252.762,609.37 254.201,609.823 255.633,610.291 C 255.641,610.422 255.65,610.554 255.659,610.685 C 255.008,610.755 254.359,610.877 253.706,610.884 C 249.855,610.942 246.153,610.424 242.935,608.048 C 242.084,607.418 241.16,606.887 240.315,606.253 C 236.738,603.576 233.17,600.884 229.612,598.18 C 228.106,597.033 226.632,595.847 225.159,594.657 C 224.97,594.503 224.604,594.353 224.913,593.834 C 225.347,594.082 225.788,594.308 226.202,594.582 Z M 318.086,595.134 C 317.393,595.843 316.507,595.9 315.193,595.908 C 316.345,595.093 317.148,594.519 318.388,594.196 C 318.247,594.657 318.246,594.971 318.086,595.134 Z M 244.679,598.848 C 247.697,599.649 250.758,600.015 253.883,600.02 C 255.002,600.02 256.126,600.294 257.237,600.502 C 258.126,600.668 258.997,600.943 259.881,601.144 C 265.274,602.369 270.743,603.138 276.212,603.901 C 276.838,603.987 277.459,604.05 278.24,604.401 C 276.684,605.389 275.243,606.044 273.787,606.653 C 273.396,606.815 272.902,606.794 272.461,606.763 C 270.575,606.619 268.694,606.433 266.807,606.282 C 265.141,606.148 263.518,605.825 261.919,605.321 C 259.468,604.552 256.991,603.847 254.545,603.053 C 251.739,602.14 248.944,601.193 246.167,600.204 C 245.329,599.906 244.44,599.631 243.679,598.764 C 244.119,598.8 244.41,598.778 244.679,598.848 Z M 373.169,598.935 C 372.345,599.388 372.187,600.22 372.141,601.074 C 372.124,601.376 372.137,601.679 372.137,601.72 C 372.288,603.162 372.752,604.172 373.744,604.869 C 376.048,606.484 377.932,608.556 379.956,610.486 C 381.822,612.256 383.862,613.812 386.18,614.983 C 388.609,616.205 391.03,617.446 393.457,618.665 C 393.995,618.936 394.545,619.198 395.112,619.397 C 397.096,620.102 398.733,618.712 399.1,617.133 C 399.633,614.83 398.503,612.51 396.856,611.686 C 394.155,610.338 391.55,608.796 388.903,607.344 C 387.776,606.727 386.584,606.208 385.521,605.502 C 383.248,603.99 380.89,602.664 378.374,601.607 C 377.824,601.376 377.328,601.004 376.836,600.662 C 376.339,600.319 375.88,599.921 375.398,599.557 C 374.737,599.054 374.08,598.43 373.169,598.935 Z M 329.575,604.824 C 331.383,602.77 333.818,600.792 335.629,599.753 C 335.901,599.597 336.217,599.513 336.509,599.4 C 334.478,601.612 332.306,603.574 329.575,604.824 Z M 191.478,601.074 C 190.601,601.658 189.589,602.055 188.754,602.686 C 185.802,604.93 182.812,607.138 179.991,609.54 C 172.208,616.176 164.509,622.904 156.763,629.582 C 155.675,630.519 154.539,631.404 153.383,632.255 C 152.474,632.926 151.942,633.794 151.758,634.885 C 151.388,637.114 151.802,639.095 153.543,640.684 C 153.98,641.083 154.337,641.576 154.705,642.043 C 155.576,643.147 156.235,643.296 157.397,642.417 C 158.847,641.325 160.232,640.145 161.629,638.984 C 165.784,635.532 169.316,631.466 172.922,627.478 C 174.804,625.394 176.789,623.435 178.905,621.585 C 182.668,618.291 186.409,614.984 190.339,611.886 C 191.812,610.721 193.407,609.637 194.22,607.812 C 194.327,607.571 194.624,607.335 194.884,607.252 C 195.478,607.065 196.089,606.893 196.307,606.256 C 196.525,605.625 196.615,604.952 196.717,604.502 C 196.436,603.055 196.201,601.86 194.67,601.589 C 194.395,601.539 194.088,601.381 193.896,601.175 C 193.106,600.337 192.344,600.494 191.478,601.074 Z M 303.034,604.495 C 302.342,604.769 301.883,604.993 301.397,605.139 C 298.571,605.968 295.679,606.481 292.763,606.854 C 291.047,607.077 289.317,607.185 287.591,607.327 C 287.407,607.341 287.213,607.232 286.752,607.104 C 288.506,605.954 289.976,604.957 291.99,604.907 C 295.451,604.819 298.906,604.543 302.369,604.352 C 302.495,604.343 302.627,604.405 303.034,604.495 Z M 322.429,608.395 C 322.254,608.53 322.042,608.756 321.783,608.875 C 317.989,610.574 314.251,612.424 310.375,613.906 C 303.902,616.381 297.117,617.606 290.232,618.165 C 286.235,618.49 282.221,618.642 278.216,618.715 C 274.035,618.789 269.925,618.136 265.898,617.01 C 265.69,616.951 265.503,616.818 265.098,616.616 C 265.571,616.381 265.759,616.235 265.968,616.193 C 268.488,615.65 270.965,614.99 273.347,613.981 C 273.81,613.788 274.381,613.766 274.898,613.793 C 277.692,613.923 280.483,614.102 283.278,614.257 C 288.919,614.57 294.473,613.865 299.935,612.563 C 306.644,610.96 313.114,608.613 319.442,605.887 C 319.828,605.72 320.261,605.665 320.594,605.578 C 321.251,606.591 321.822,607.467 322.429,608.395 Z M 198.688,613.999 C 198.459,614.195 198.261,614.428 198.057,614.649 C 196.685,616.16 195.304,617.661 193.955,619.194 C 193.407,619.816 192.886,620.47 192.442,621.169 C 190.86,623.656 189.317,626.172 187.758,628.677 C 186.581,630.566 186.529,632.526 187.426,634.526 C 187.609,634.935 187.867,635.327 188.169,635.655 C 189.037,636.6 190.047,636.648 190.936,635.747 C 191.46,635.212 191.93,634.597 192.323,633.957 C 193.667,631.767 195.014,629.575 196.269,627.332 C 197.64,624.89 198.949,622.424 200.802,620.285 C 201.789,619.143 202.046,618.018 201.887,616.568 C 201.766,615.717 201.46,614.794 200.716,614.077 C 200.077,613.46 199.354,613.429 198.688,613.999 Z M 347.882,616.553 C 347.429,617.571 347.474,618.624 347.681,619.677 C 348.357,623.123 349.467,626.394 351.465,629.33 C 354.063,633.151 356.591,637.016 359.204,640.825 C 361.174,643.703 363.335,646.432 365.716,648.989 C 367.624,651.041 369.374,653.242 371.327,655.247 C 373.174,657.141 375.154,658.911 377.15,660.652 C 378.462,661.793 379.652,661.446 380.4,659.829 C 380.643,659.306 380.798,658.739 381.059,658.009 C 381.592,658.426 381.985,658.744 382.392,659.043 C 383.003,659.489 383.588,659.99 384.245,660.348 C 385.837,661.213 387.469,660.568 388.102,658.861 C 388.575,657.581 388.444,656.278 387.854,655.107 C 387.384,654.178 386.747,653.291 386.019,652.547 C 381.942,648.377 377.817,644.255 373.702,640.123 C 372.262,638.676 370.854,637.184 369.337,635.817 C 366.795,633.529 364.575,630.944 362.269,628.436 C 361.192,627.266 360.141,626.057 358.956,625.005 C 356.902,623.179 355.116,621.137 353.578,618.872 C 352.758,617.667 351.764,616.637 350.6,615.775 C 349.447,614.922 348.474,615.224 347.882,616.553 Z M 218.488,627.631 C 218.055,628.517 217.682,629.429 217.215,630.296 C 216.897,630.885 216.565,631.54 216.058,631.937 C 215.071,632.712 214.428,633.711 213.779,634.736 C 212.03,637.496 210.495,640.365 209.476,643.48 C 207.9,648.317 205.638,652.867 203.665,657.538 C 202.75,659.701 201.887,661.885 201.012,664.061 C 200.138,666.241 199.184,668.376 197.925,670.376 C 196.772,672.202 196.003,674.172 196.424,676.402 C 196.536,676.99 196.696,677.589 196.953,678.125 C 197.527,679.313 198.384,680.082 199.843,679.74 C 199.972,679.709 200.129,679.786 200.28,679.816 C 200.679,680.352 201.031,680.942 201.493,681.422 C 202.216,682.173 203.181,682.174 203.914,681.464 C 204.288,681.095 204.613,680.664 204.891,680.215 C 205.449,679.315 206.064,678.431 206.476,677.46 C 209.781,669.653 213.518,662.025 216.444,654.062 C 218.48,648.523 220.23,642.876 222.103,637.279 C 222.587,635.822 222.83,634.352 222.496,632.808 C 222.39,632.317 222.548,631.767 222.601,631.245 C 222.721,630.016 222.647,628.819 222.061,627.703 C 221.661,626.942 221.142,626.269 220.173,626.291 C 219.303,626.313 218.835,626.925 218.488,627.631 Z M 321.239,633.904 C 321.103,634.333 321.022,634.786 320.993,635.235 C 320.963,635.76 321.015,636.289 321.021,636.544 C 321.349,638.861 321.956,640.807 322.949,642.612 C 323.93,644.396 324.931,646.177 326.029,647.896 C 329.36,653.121 332.602,658.41 336.357,663.349 C 336.861,664.012 337.361,664.688 337.958,665.258 C 339.111,666.35 340.414,666.068 341.027,664.583 C 341.733,662.87 341.517,661.164 340.711,659.542 C 340.339,658.801 339.846,658.121 339.398,657.422 C 335.894,651.946 332.361,646.491 328.9,640.989 C 327.534,638.822 326.108,636.671 325.321,634.189 C 325.232,633.904 325.065,633.64 324.896,633.389 C 324.415,632.668 323.843,632.067 322.87,632.211 C 321.914,632.356 321.499,633.086 321.239,633.904 Z M 293.63,636.901 C 293.304,637.721 293.15,638.656 293.138,639.543 C 293.124,640.513 293.289,641.51 293.51,642.465 C 294.319,645.925 295.162,649.379 296.027,652.83 C 297.773,659.804 299.53,666.775 301.31,673.74 C 302.207,677.261 303.152,680.77 304.106,684.274 C 304.94,687.338 305.737,690.419 306.714,693.443 C 307.408,695.597 308.356,697.67 309.224,699.77 C 309.394,700.181 309.655,700.573 309.951,700.913 C 310.906,702.025 312.064,702.025 313.043,700.927 C 313.29,700.649 313.467,700.311 313.763,699.867 C 314.124,699.903 314.346,699.918 314.568,699.952 C 315.654,700.113 316.328,699.536 316.665,698.61 C 316.919,697.913 317.054,697.148 317.107,696.403 C 317.297,693.663 316.868,690.971 316.417,688.279 C 314.84,678.899 311.784,669.948 308.465,661.081 C 306.524,655.893 305.089,650.566 303.775,645.197 C 303.269,643.139 302.837,641.062 302.312,639.01 C 302.125,638.286 301.84,637.567 301.468,636.92 C 300.901,635.926 300.054,635.31 298.831,635.703 C 298.273,635.886 297.856,635.739 297.342,635.505 C 295.721,634.773 294.274,635.294 293.63,636.901 Z M 239.341,636.274 C 238.994,636.922 238.688,637.683 238.669,638.401 C 238.59,641.372 238.056,644.263 237.385,647.145 C 237.163,648.099 237.114,649.093 236.978,650.067 C 235.82,658.39 234.636,666.707 233.75,675.067 C 233.414,678.231 232.657,681.328 231.692,684.366 C 231.187,685.961 231.263,687.509 232.069,688.982 C 232.318,689.437 232.65,689.876 233.035,690.226 C 233.908,691.022 235.137,690.971 235.815,690 C 236.367,689.211 236.775,688.285 237.082,687.365 C 238.256,683.831 238.921,680.182 239.384,676.496 C 240.137,670.485 240.911,664.48 241.619,658.465 C 242.16,653.874 242.387,649.264 242.401,644.64 C 242.407,643.125 242.509,641.613 242.566,640.103 C 242.583,639.647 242.607,639.194 242.622,638.801 C 242.439,637.758 242.208,636.804 241.464,636.073 C 240.787,635.407 239.785,635.447 239.341,636.274 Z M 268.392,648.708 C 268.331,648.847 268.25,648.984 268.226,649.13 C 267.878,651.284 267.198,653.405 267.424,655.623 C 268.037,661.634 268.673,667.644 269.306,673.657 C 269.344,674.028 269.394,674.413 269.514,674.767 C 269.735,675.405 269.943,676.065 270.279,676.647 C 270.701,677.378 271.288,678.02 272.249,677.938 C 273.324,677.851 273.789,677.031 274.043,676.137 C 274.249,675.424 274.328,674.66 274.362,673.909 C 274.395,673.235 274.311,672.551 274.241,671.876 C 273.961,669.17 273.665,666.466 273.374,663.761 C 273.424,663.755 273.476,663.747 273.526,663.741 C 272.992,660.158 272.447,656.575 271.939,652.987 C 271.855,652.398 271.93,651.791 271.923,651.189 C 271.914,650.273 271.792,649.379 271.289,648.582 C 270.911,647.982 270.469,647.475 269.67,647.561 C 268.98,647.636 268.65,648.137 268.392,648.708 Z" stroke-linejoin="miter" stroke-width="1.348" fill="#ffb800" marker-start="none" marker-end="none" stroke-miterlimit="79.8403193612775"/>
    </g>
    <g id="Group_1" stroke="none">
     <path d="M 286.682,482.943 C 286.424,484.429 286.716,485.745 287.91,486.821 C 290.158,488.842 292.901,489.599 295.787,489.649 C 298.538,489.698 301.294,489.37 304.05,489.207 C 304.047,489.115 304.041,489.025 304.037,488.935 C 306.883,488.825 309.73,488.742 312.573,488.598 C 314.442,488.504 316.305,488.337 318.167,488.178 C 320.12,488.01 322.056,487.86 324.022,488.197 C 325.145,488.39 326.335,488.292 327.486,488.213 C 330.152,488.029 332.815,487.801 335.478,487.548 C 336.613,487.436 337.029,487.06 337.197,486.201 C 337.398,485.172 337.255,484.21 336.36,483.57 C 336.04,483.34 335.515,483.267 335.104,483.312 C 332.965,483.553 330.844,483.696 328.753,483.006 C 328.589,482.951 328.4,482.956 328.222,482.964 C 324.665,483.076 321.103,483.093 317.558,483.335 C 314.624,483.531 311.704,483.726 308.755,483.602 C 306.807,483.516 304.842,483.753 302.891,483.91 C 301.38,484.025 299.881,484.287 298.372,484.403 C 295.011,484.66 291.805,484.312 289.055,482.033 C 288.028,481.183 286.913,481.655 286.682,482.943 Z M 217.852,481.928 C 215.915,482.242 213.96,482.168 211.989,482.103 C 209.778,482.031 207.549,482.381 205.335,482.622 C 204.734,482.687 204.134,482.962 203.588,483.241 C 201.701,484.214 201.129,486.396 202.242,488.239 C 202.579,488.797 203.382,489.087 203.852,488.675 C 206.406,486.453 209.542,486.779 212.525,486.826 C 214.672,486.863 216.797,486.845 218.921,486.592 C 219.997,486.463 220.986,486.474 222.008,487.067 C 225.881,489.324 230.141,489.48 234.468,489.153 C 234.732,489.132 235.024,489.137 235.257,489.028 C 237.235,488.1 239.283,488.548 241.314,488.697 C 243.177,488.829 245.042,488.986 246.905,489.152 C 248.583,489.294 250.28,489.306 251.955,489.383 C 254.968,489.523 258.006,489.171 261.03,488.972 C 261.791,488.922 262.252,488.299 262.326,487.508 C 262.487,485.815 261.734,484.883 260.088,484.964 C 257.127,485.107 254.229,484.587 251.312,484.296 C 250.43,484.207 249.523,484.122 248.652,484.228 C 245.964,484.551 243.318,484.339 240.667,483.872 C 239.269,483.625 237.848,483.514 236.654,483.367 C 235.721,483.603 235.019,483.739 234.342,483.961 C 230.474,485.216 226.73,484.819 223.222,482.881 C 221.477,481.915 219.785,481.613 217.852,481.928 Z M 193.521,482.595 C 190.495,482.821 187.47,483.043 184.444,483.296 C 182.417,483.465 180.403,483.902 178.409,483.401 C 177.351,484.459 177.379,485.564 177.98,486.661 C 178.543,487.696 179.501,488.126 180.675,488.053 C 181.387,488.006 182.1,487.965 182.809,487.88 C 186.265,487.458 189.72,487.026 193.174,486.592 C 193.708,486.526 194.235,486.427 194.762,486.356 C 196.194,486.156 196.766,485.158 196.271,483.57 C 196.1,483.02 195.722,482.636 195.128,482.594 C 194.596,482.552 194.055,482.557 193.521,482.595 Z M 271.459,484.226 C 271.194,485.4 271.668,486.461 272.693,486.852 C 274.694,487.611 276.712,487.34 278.713,486.857 C 279.27,486.721 279.563,486.249 279.678,485.692 C 279.852,484.838 279.629,484.118 279.093,483.659 C 277.295,483.391 275.642,483.14 273.995,482.895 C 273.821,482.871 273.643,482.865 273.465,482.865 C 272.349,482.862 271.659,483.327 271.459,484.226 Z M 350.812,483.557 C 350.829,483.556 350.652,483.573 350.478,483.593 C 348.129,483.865 347.188,485.609 348.238,487.766 C 348.571,488.45 349.136,489.007 349.88,488.917 C 351.628,488.709 353.359,488.371 355.085,488.015 C 355.359,487.956 355.649,487.568 355.773,487.268 C 356.208,486.225 356.139,485.152 355.49,484.239 C 355.221,483.862 354.647,483.531 354.187,483.495 C 353.134,483.41 352.067,483.518 350.812,483.557 Z M 385.984,486.727 C 385.175,487.537 384.32,488.299 383.478,489.078 C 382.762,489.745 382.612,490.859 383.122,491.761 C 383.476,492.386 384.324,492.725 385.244,492.415 C 385.892,492.197 386.595,491.852 387.028,491.354 C 388.434,489.72 390.212,489.577 392.135,489.813 C 394.429,490.092 396.718,490.388 399.014,490.638 C 399.626,490.699 400.258,490.686 400.866,490.604 C 401.578,490.504 402.001,489.842 401.992,489.019 C 401.982,488.184 401.572,487.49 400.921,487.367 C 400.403,487.268 399.862,487.266 399.329,487.267 C 396.916,487.278 394.566,486.941 392.247,486.214 C 390.997,485.821 389.664,485.688 388.367,485.437 C 387.39,485.654 386.643,486.067 385.984,486.727 Z M 363.921,486.729 C 363.67,487.448 363.65,488.286 363.701,489.059 C 363.748,489.777 364.097,490.429 365.052,490.732 C 366.734,489.651 368.641,489.939 370.561,490.429 C 371.42,490.644 372.277,490.888 373.15,491.037 C 374.084,491.195 374.671,490.638 374.683,489.679 C 374.702,488.354 374.271,487.726 373.011,487.315 C 371.577,486.849 370.138,486.396 368.693,485.97 C 368.1,485.792 367.492,485.642 366.881,485.556 C 365.395,485.347 364.264,485.73 363.921,486.729 Z M 329.778,491.483 C 329.774,491.463 329.772,491.442 329.772,491.423 C 328.618,491.544 327.453,491.614 326.312,491.809 C 325.197,491.996 324.773,492.769 324.973,494.008 C 325.141,495.073 325.7,495.602 326.797,495.5 C 329.197,495.274 331.591,494.989 333.98,494.678 C 335.008,494.54 335.506,493.827 335.437,492.805 C 335.362,491.682 334.672,491.025 333.506,491.095 C 332.26,491.174 331.02,491.353 329.778,491.483 Z M 300.674,494.092 C 299.802,494.226 298.92,494.375 298.075,494.625 C 297.125,494.911 296.736,495.625 296.799,496.689 C 296.868,497.876 297.438,498.662 298.442,498.796 C 299.049,498.879 299.683,498.856 300.3,498.8 C 302.152,498.625 304.009,498.41 305.86,498.213 C 305.859,498.153 305.858,498.098 305.853,498.037 C 308.6,497.938 311.342,497.839 314.089,497.736 C 314.531,497.721 314.991,497.752 315.406,497.642 C 315.719,497.554 316.066,497.328 316.246,497.065 C 316.797,496.25 316.682,495.366 316.273,494.532 C 315.923,493.819 315.264,493.587 314.498,493.607 C 309.889,493.73 305.263,493.385 300.674,494.092 Z M 230.602,496.103 C 229.86,496.592 229.074,497.034 228.254,497.372 C 225.341,498.577 222.361,498.726 219.357,497.732 C 217.833,497.228 216.337,496.631 214.803,496.163 C 214.05,495.93 213.238,495.795 212.452,495.795 C 211.438,495.795 210.822,496.374 210.556,497.368 C 210.205,498.675 210.365,499.834 211.537,500.665 C 213.511,500.246 213.513,500.245 215.409,500.871 C 216.171,501.127 216.935,501.382 217.687,501.657 C 222.688,503.486 227.504,503.038 232.129,500.454 C 233.751,499.547 235.472,499.243 237.291,499.397 C 240.049,499.629 242.798,499.918 245.554,500.111 C 250.55,500.463 255.536,500.568 260.524,499.931 C 261.66,499.788 262.837,499.862 263.988,499.945 C 267.282,500.173 270.569,500.435 273.874,500.055 C 274.933,499.933 276.015,500.046 277.083,500.01 C 278.509,499.96 279.937,499.921 281.359,499.778 C 282.492,499.663 282.973,498.938 282.9,497.71 C 282.818,496.345 282.175,495.594 280.983,495.615 C 279.466,495.64 277.949,495.864 276.441,495.8 C 272.073,495.617 267.711,495.321 263.345,495.095 C 262.458,495.049 261.562,495.048 260.676,495.114 C 259.519,495.196 258.367,495.352 257.216,495.508 C 251.233,496.315 245.29,495.969 239.361,494.971 C 238.747,494.866 238.134,494.751 237.515,494.662 C 235.04,494.312 232.726,494.711 230.602,496.103 Z M 148.785,496.262 C 148.269,498.563 149.707,500.373 152.047,500.323 C 152.843,500.306 153.634,500.164 154.015,500.123 C 155.813,499.621 157.218,499.616 158.648,499.762 C 159.435,499.843 159.961,499.269 160.037,498.47 C 160.184,496.916 159.593,496.015 158.085,495.877 C 156.146,495.698 154.255,495.081 152.27,495.308 C 151.774,495.363 151.243,495.123 150.728,495.023 C 149.652,494.817 149.017,495.225 148.785,496.262 Z M 169.004,496.26 C 168.648,496.3 168.295,496.329 167.943,496.375 C 167.068,496.487 166.47,496.937 166.242,497.82 C 165.998,498.755 166.181,499.615 166.889,500.258 C 167.181,500.525 167.705,500.74 168.079,500.683 C 170.336,500.354 172.467,501.055 174.659,501.311 C 177.732,501.665 180.839,501.746 183.934,501.924 C 184.633,501.965 185.094,501.56 185.261,500.875 C 185.574,499.576 185.135,498.539 183.94,498.043 C 183.216,497.741 182.433,497.481 181.657,497.412 C 179.715,497.252 177.76,497.259 175.818,497.101 C 174.677,497.006 173.555,496.712 172.419,496.538 C 171.289,496.365 170.154,496.225 169.025,496.076 C 169.016,496.139 169.009,496.2 169.004,496.26 Z M 384.776,497.528 C 382.024,497.811 379.27,498.09 376.519,498.382 C 374.12,498.633 371.732,498.85 369.309,498.621 C 368.078,498.507 366.816,498.708 365.57,498.767 C 365.553,498.722 365.54,498.679 365.525,498.633 C 364.068,499.018 362.555,499.263 361.166,499.816 C 358.828,500.744 356.467,500.816 354.066,500.388 C 351.081,499.852 348.095,499.314 345.302,498.05 C 343.956,497.44 342.54,497.383 341.104,497.671 C 340.412,497.807 340.023,498.265 339.829,498.901 C 339.556,499.793 339.647,500.675 340.033,501.511 C 340.356,502.207 340.892,502.689 341.707,502.598 C 343.28,502.41 344.656,502.99 346.106,503.481 C 350.261,504.889 354.492,505.98 358.944,505.634 C 360.181,505.534 361.442,505.363 362.623,504.993 C 364.355,504.452 366.121,504.156 367.899,504.249 C 373.37,504.537 378.775,503.879 384.176,503.198 C 386.696,502.881 389.152,502.918 391.572,503.699 C 393.295,504.25 395.079,504.431 396.858,504.413 C 399.89,504.381 402.92,504.203 405.953,504.109 C 407.014,504.076 407.848,503.397 407.71,501.932 C 407.591,500.665 406.907,500.049 405.58,500.072 C 404.066,500.096 402.55,500.22 401.037,500.195 C 397.255,500.133 393.609,499.252 390.049,498.065 C 388.311,497.485 386.569,497.34 384.776,497.528 Z M 312.345,503.025 C 311.145,503.544 309.767,503.751 308.45,503.879 C 304.541,504.253 300.624,504.52 296.71,504.825 C 296.175,504.867 295.642,504.88 295.107,504.927 C 293.611,505.066 293.157,505.367 292.887,506.404 C 292.552,507.708 292.741,508.928 293.781,509.824 C 294.119,510.116 294.784,510.17 295.27,510.114 C 298.016,509.774 300.754,509.37 303.491,508.988 C 303.485,508.93 303.479,508.875 303.47,508.821 C 305.335,508.622 307.194,508.391 309.06,508.229 C 310.928,508.064 312.765,507.9 314.553,507.189 C 315.414,506.841 316.485,506.882 317.447,506.95 C 318.774,507.052 320.096,507.317 321.406,507.565 C 324.959,508.238 328.498,508.231 332.034,507.488 C 332.763,507.333 333.46,507.164 333.687,506.352 C 333.991,505.268 333.94,504.199 333.1,503.364 C 332.825,503.097 332.3,502.948 331.896,502.961 C 330.471,503.013 329.04,503.096 327.628,503.292 C 325.3,503.615 323.006,503.483 320.718,502.976 C 320.025,502.824 319.328,502.671 318.629,502.529 C 316.49,502.098 314.428,502.117 312.345,503.025 Z M 263.763,503.292 C 262.788,503.523 262.282,504.225 262.316,505.228 C 262.357,506.353 263.011,507.142 264.088,507.146 C 268.879,507.162 273.668,507.131 278.453,507.112 C 278.72,507.112 278.989,507.082 279.251,507.05 C 280.821,506.857 281.385,506.01 280.963,504.489 C 280.745,503.71 280.247,503.297 279.431,503.28 C 276.507,503.226 273.581,503.198 270.658,503.139 C 268.887,503.102 267.116,503.025 265.73,502.979 C 264.814,503.123 264.279,503.169 263.763,503.292 Z M 147.8,507.903 C 146.754,507.981 145.651,508.171 144.708,508.604 C 142.997,509.397 142.563,511.627 143.684,513.188 C 144.016,513.648 144.491,513.938 145.07,513.73 C 149.135,512.269 153.138,512.749 157.11,514.093 C 160.313,515.175 163.576,515.28 166.889,514.773 C 167.065,514.747 167.274,514.773 167.413,514.686 C 169.01,513.642 170.552,514.057 172.221,514.627 C 174.171,515.292 176.251,515.354 178.312,515.179 C 180.622,514.982 182.925,514.686 185.24,514.542 C 186.746,514.448 188.291,514.361 189.77,514.595 C 192.295,514.994 194.754,514.61 197.226,514.306 C 198.429,514.159 198.925,513.473 198.737,512.256 C 198.645,511.677 198.303,511.139 198.101,510.645 C 197.669,510.574 197.397,510.47 197.147,510.501 C 194.445,510.842 191.816,510.499 189.216,509.757 C 188.005,509.411 186.765,509.374 185.502,509.535 C 183.204,509.836 180.894,510.07 178.589,510.317 C 176.074,510.589 173.601,510.423 171.225,509.481 C 169.929,508.965 168.666,508.85 167.356,509.511 C 165.122,510.643 162.718,510.703 160.324,510.28 C 158.93,510.032 157.57,509.551 156.218,509.107 C 153.478,508.21 150.683,507.685 147.8,507.903 Z M 211.736,511.41 C 212.024,512.642 212.864,513.444 214.05,513.772 C 216.109,514.341 218.201,514.768 220.362,514.595 C 222.222,514.448 224.084,514.246 225.949,514.156 C 227.45,514.083 228.961,514.179 230.465,514.124 C 230.857,514.11 231.375,513.919 231.606,513.63 C 232.624,512.347 231.948,510.148 230.408,509.685 C 229.035,509.27 227.618,509.149 226.184,509.335 C 224.861,509.506 223.531,509.635 222.215,509.838 C 219.878,510.196 217.612,509.982 215.392,509.153 C 214.568,508.848 213.698,508.655 212.755,508.386 C 211.561,509.288 211.479,510.322 211.736,511.41 Z M 384.46,510.669 C 382.934,511.063 382.356,511.866 382.472,513.363 C 382.595,514.916 383.264,515.736 384.751,515.814 C 386.524,515.909 388.303,515.834 390.083,515.834 C 390.08,515.787 390.078,515.738 390.077,515.694 C 390.781,515.571 391.489,515.48 392.184,515.323 C 392.965,515.145 393.392,514.616 393.476,513.831 C 393.653,512.172 392.94,511.393 391.283,511.251 C 390.228,511.16 389.16,511.001 388.149,510.708 C 386.901,510.345 385.685,510.35 384.46,510.669 Z M 242.013,513.293 C 241.852,514.894 242.47,515.777 244.029,516.209 C 244.716,516.402 245.39,516.623 246.057,516.866 C 247.315,517.323 248.577,517.765 249.812,518.279 C 255.568,520.681 261.592,520.992 267.691,520.508 C 271.432,520.212 275.144,519.894 278.894,520.482 C 280.285,520.702 281.745,520.576 283.164,520.475 C 285.21,520.325 287.248,520.053 289.29,519.833 C 292.837,519.481 296.378,518.939 299.964,519.32 C 300.667,519.398 301.375,519.474 302.081,519.572 C 305.889,520.104 309.716,520.284 313.557,520.026 C 315.873,519.865 318.169,519.697 320.482,520.204 C 321.324,520.39 322.255,520.226 323.141,520.163 C 326.17,519.96 329.192,519.697 332.22,519.524 C 335.357,519.339 338.461,519.724 341.527,520.318 C 347.662,521.51 353.835,522.389 360.065,522.857 C 363.906,523.15 367.737,522.861 371.541,522.33 C 373.194,522.1 373.827,520.119 372.667,518.865 C 372.4,518.578 371.901,518.374 371.501,518.36 C 370.703,518.338 369.894,518.428 369.101,518.547 C 362.566,519.542 356.102,518.644 349.666,517.662 C 347.128,517.272 344.673,516.334 342.189,515.619 C 337.346,514.221 332.446,513.48 327.396,514.2 C 325.717,514.438 324.032,514.638 322.342,514.782 C 321.284,514.869 320.214,514.795 319.151,514.839 C 317.727,514.897 316.294,514.91 314.889,515.097 C 310.423,515.698 306.024,515.581 301.618,514.482 C 298.492,513.701 295.259,513.643 292.045,513.953 C 289.29,514.218 286.538,514.536 283.788,514.823 C 281.565,515.056 279.35,515.199 277.121,514.843 C 274.366,514.41 271.594,514.578 268.845,514.882 C 265.462,515.261 262.078,515.284 258.691,515.115 C 256.167,514.991 253.788,514.221 251.416,513.432 C 249.808,512.901 248.225,512.271 246.596,511.823 C 245.671,511.571 244.665,511.485 243.701,511.521 C 242.717,511.559 242.112,512.318 242.013,513.293 Z M 410.02,512.883 C 408.42,513.004 406.847,513.211 405.225,512.966 C 403.846,512.755 403.196,513.247 402.944,514.262 C 402.606,515.63 403.097,517.056 404.253,517.408 C 405.43,517.768 406.707,518.092 407.908,517.996 C 410.695,517.776 413.427,518.09 416.159,518.461 C 419.171,518.874 422.175,519.129 425.221,518.932 C 426.813,518.828 428.426,519.008 430.029,519.006 C 431.187,519.006 432.344,518.916 433.5,518.866 C 433.496,518.819 433.493,518.766 433.492,518.715 C 434.56,518.662 435.629,518.638 436.691,518.553 C 439.358,518.347 442.024,518.144 444.683,517.879 C 445.747,517.772 446.185,517.31 446.322,516.433 C 446.485,515.405 446.317,514.452 445.466,513.776 C 445.22,513.578 444.79,513.533 444.451,513.544 C 439.822,513.68 435.199,513.331 430.557,513.537 C 424.781,513.794 418.98,513.663 413.218,512.939 C 412.163,512.808 411.078,512.802 410.02,512.883 Z M 88.53,519.31 C 87.699,519.407 86.879,519.539 86.062,519.687 C 84.764,519.918 84.045,520.668 84.004,521.752 C 83.973,522.536 84.128,523.353 84.393,524.107 C 84.683,524.935 85.474,525.411 86.501,525.495 C 87.124,525.545 87.761,525.565 88.382,525.51 C 92.147,525.152 95.899,525.403 99.645,525.713 C 107.032,526.33 114.436,526.69 121.852,526.938 C 128.116,527.152 134.365,527.641 140.623,527.958 C 148.03,528.337 155.439,528.664 162.847,529.007 C 165.769,529.139 168.69,529.252 171.758,529.382 C 172.02,529.711 172.34,530.047 172.578,530.424 C 173.025,531.126 173.716,531.449 174.618,531.476 C 183.099,531.71 191.385,533.37 199.819,533.956 C 205.965,534.384 212.112,534.765 218.288,534.734 C 222.363,534.712 226.439,534.811 230.516,534.762 C 235.114,534.711 239.711,534.55 244.309,534.441 C 250.892,534.28 257.473,534.108 264.057,533.975 C 270.327,533.85 276.601,533.825 282.871,533.657 C 286.832,533.552 290.787,533.262 294.745,533.064 C 295.575,533.019 296.399,532.926 297.071,533.553 C 297.767,534.203 298.714,534.264 299.686,534.19 C 300.724,534.109 301.773,534.08 302.81,533.97 C 309.371,533.285 315.954,533.423 322.544,533.462 C 330.385,533.507 338.225,533.366 346.065,533.249 C 355.161,533.112 364.251,532.898 373.348,532.741 C 378.678,532.651 384.008,532.583 389.337,532.553 C 393.312,532.527 397.286,532.602 401.257,532.591 C 406.692,532.581 412.127,532.534 417.563,532.507 C 422.581,532.48 427.597,532.485 432.61,532.441 C 436.377,532.403 440.138,532.34 443.896,532.228 C 448.391,532.093 452.88,531.867 457.374,531.724 C 461.033,531.611 464.687,531.557 468.348,531.483 C 468.977,531.468 469.607,531.495 470.234,531.468 C 472.305,531.385 472.895,531.045 473.294,529.743 C 473.748,528.273 473.183,526.483 471.943,525.888 C 471.439,525.647 470.753,525.589 470.149,525.595 C 465.862,525.639 461.577,525.696 457.292,525.796 C 445.693,526.064 434.09,526.204 422.488,525.896 C 419.565,525.817 416.635,525.975 413.705,525.989 C 408.796,526.009 403.878,526.012 398.969,526.003 C 394.16,525.992 389.351,525.932 384.541,525.935 C 377.644,525.939 370.746,525.963 363.844,526.012 C 360.393,526.036 356.945,526.134 353.496,526.2 C 343.355,526.393 333.219,526.603 323.079,526.763 C 321.531,526.787 319.976,526.506 318.422,526.474 C 315.497,526.41 312.566,526.483 309.645,526.4 C 302.32,526.193 295.012,526.469 287.7,526.675 C 283.837,526.788 279.964,526.622 276.096,526.606 C 273.17,526.594 270.238,526.517 267.32,526.653 C 262.296,526.887 257.29,526.646 252.277,526.485 C 246.845,526.308 241.411,526.225 235.977,526.103 C 235.768,526.099 235.562,526.11 235.351,526.114 C 231.835,526.203 231.696,526.296 230.631,529.277 C 230.602,529.355 230.518,529.418 230.284,529.712 C 227.5,529.518 224.784,529.894 222.158,529.494 C 220.817,526.417 220.821,526.369 217.055,526.083 C 208.626,525.442 200.191,524.865 191.761,524.23 C 187.701,523.923 183.661,523.448 179.597,523.205 C 173.134,522.819 166.665,522.573 160.195,522.254 C 150.804,521.787 141.417,521.291 132.026,520.843 C 125.768,520.544 119.501,520.339 113.241,520.032 C 109.278,519.84 105.321,519.538 101.361,519.284 C 97.083,519.013 92.803,518.812 88.53,519.31 Z" stroke-linejoin="miter" stroke-width="1.348" fill="#86d3d9" marker-start="none" marker-end="none" stroke-miterlimit="79.8403193612775"/>
    </g>
   </g>
  </g>
 </g>
</svg>
