<?xml version="1.0" encoding="utf-8"?>
<!-- Generator: Adobe Illustrator 16.2.0, SVG Export Plug-In . SVG Version: 6.00 Build 0)  -->
<!DOCTYPE svg PUBLIC "-//W3C//DTD SVG 1.1//EN" "http://www.w3.org/Graphics/SVG/1.1/DTD/svg11.dtd">
<svg version="1.1" id="Layer_1" xmlns="http://www.w3.org/2000/svg" xmlns:xlink="http://www.w3.org/1999/xlink" x="0px" y="0px"
	 width="1440px" height="1440px" viewBox="0 0 1440 1440" enable-background="new 0 0 1440 1440" xml:space="preserve">
<path fill="none" stroke="#000000" stroke-miterlimit="10" d="M206.5,160.5v864h864v-864H206.5z M243.5,309.957
	c38,32.566,70.8,6.615,78.998,0c42.233,35.023,77.002,1.622,79.002,0v0.002c3,1.995,38.708,35.021,80.371,0
	c41.212,33.13,72.48,5.615,79.812,0c41.636,35.021,76.665,2.892,79.521,0.771c40.756,33.887,75.054,3.771,79.396,0.771h0.127
	c42.691,35,76.39,1.225,79.121-0.771c40.994,34.077,74.894,2.982,79.113-0.386c11.182,8.858,40.286,31.067,77.771-0.193
	c42,33.886,72.768,3.55,77.768-0.192v29.946c-1,0.749-35.578,35.732-77.768-0.126c-40.877,34.725-75.523,2.373-78.503,0
	c-1.489,1.376-37.002,35.293-78.749,0c-0.373,0.375-38.699,35.859-78.938,0c-1.858,1.499-38.02,35.293-79.147,0
	c-0.62,0.501-37.367,35.48-79.191,0c-3.604,2.995-37.071,34.347-79.222,0c-4.468,3.745-40.336,33.967-79.226,0
	c-3.479,2.995-39.966,34.347-80.129,0c-0.499,0.501-36.127,35.293-80.127,0V309.957z M243.5,424.645c38,32.566,70.8,6.615,78.998,0
	c42.233,35.023,77.002,1.622,79.002,0v0.002c3,1.996,38.708,35.021,80.371,0c41.212,33.13,72.48,5.615,79.812,0
	c41.636,35.021,76.665,2.549,79.521,0.428c40.756,33.885,75.054,3.426,79.396,0.426h0.127c42.691,35,76.39,1.569,79.121-0.426
	c40.994,34.075,74.894,3.153,79.113-0.215c11.182,8.858,40.286,31.154,77.771-0.105c42,33.886,72.768,3.635,77.768-0.107v29.946
	c-1,0.749-35.578,35.732-77.768-0.125c-40.877,34.724-75.523,2.373-78.503,0c-1.489,1.375-37.002,35.292-78.749,0
	c-0.373,0.375-38.699,35.857-78.938,0c-1.858,1.498-38.02,35.292-79.147,0c-0.62,0.5-37.367,35.479-79.191,0
	c-3.604,2.994-37.071,34.346-79.222,0c-4.468,3.744-40.336,33.966-79.226,0c-3.479,2.994-39.966,34.346-80.129,0
	c-0.499,0.5-36.127,35.292-80.127,0V424.645z M243.5,539.333c38,32.565,70.8,6.614,78.998,0c42.233,35.022,77.002,1.621,79.002,0
	v0.002c3,1.995,38.884,35.021,80.548,0c41.211,33.129,72.57,5.614,79.901,0c41.636,35.021,76.709,2.704,79.564,0.583
	c40.756,33.885,75.099,3.582,79.441,0.582h0.127c42.689,35,76.389,1.412,79.119-0.582c40.994,34.076,74.896,3.076,79.115-0.293
	c11.182,8.859,40.108,31.116,77.594-0.145c42,33.886,72.59,3.597,77.59-0.146v29.945c-1,0.749-35.4,35.733-77.59-0.125
	c-40.877,34.724-75.436,2.372-78.415,0c-1.491,1.375-36.957,35.292-78.705,0c-0.372,0.375-38.675,35.858-78.915,0
	c-1.858,1.497-38.01,35.292-79.137,0c-0.621,0.5-37.361,35.479-79.185,0c-3.604,2.993-37.069,34.346-79.219,0
	c-4.469,3.743-40.334,33.966-79.225,0c-3.478,2.993-40.142,34.346-80.305,0c-0.499,0.5-36.304,35.292-80.304,0V539.333z
	 M243.5,654.021c38,32.565,70.8,6.614,78.998,0c42.233,35.022,77.002,1.621,79.002,0v0.002c3,1.995,38.884,35.021,80.548,0
	c41.211,33.129,72.57,5.614,79.901,0c41.636,35.021,76.709,2.86,79.564,0.739c40.756,33.885,75.099,3.738,79.441,0.738h0.127
	c42.689,35,76.389,1.256,79.119-0.738c40.994,34.074,74.896,2.998,79.115-0.371c11.182,8.859,40.108,31.077,77.594-0.183
	c42,33.885,72.59,3.557,77.59-0.186v29.945c-1,0.749-35.4,35.732-77.59-0.125c-40.877,34.724-75.436,2.372-78.415,0
	c-1.491,1.375-36.957,35.292-78.705,0c-0.372,0.375-38.675,35.857-78.915,0c-1.858,1.498-38.01,35.292-79.137,0
	c-0.621,0.5-37.361,35.479-79.185,0c-3.604,2.993-37.069,34.346-79.219,0c-4.469,3.743-40.334,33.966-79.225,0
	c-3.478,2.993-40.142,34.346-80.305,0c-0.499,0.5-36.304,35.292-80.304,0V654.021z M1035.5,987.475
	c-12-0.043-24.227-4.061-38.139-16.002c-0.619,0.498-37.209,35.449-78.988,0c-3.599,2.99-36.865,34.316-78.97,0
	c-4.464,3.74-40.345,33.939-79.192,0c-3.477,2.99-39.698,34.578-79.816,0.262c-0.012,0.012-36.469,35.748-78.156-0.262
	c-40.833,34.693-76.152,2.369-79.126,0c-1.49,1.371-37.321,35.26-79.023,0c-0.371,0.373-38.842,35.83-79.032,0
	c-1.856,1.494-38.087,35.26-79.17,0c-0.415,0.334-17.109,16.164-40.665,15.854l-0.04-29.424
	c22.774,0.488,38.798-14.48,40.699-15.893c40.712,33.861,74.644,3.324,78.982,0.336c0,0,35.322,34.316,79.057-0.336
	c40.948,34.051,74.622,3.029,78.836-0.336c11.134,8.824,41.138,31.088,78.416,0.291c41.772,34.672,78.282-0.26,78.314-0.291
	c42.188,34.996,77.013,1.619,79.013-0.002v0.002c2,1.994,38.729,35.072,80.346,0.078c41.166,33.104,72.668,5.688,79.992,0.078
	c41.59,34.994,75.537,2.275,78.388,0.156c14.078,11.707,27.274,15.711,38.274,15.818V987.475z M1035.5,913.346
	c-1,0.75-35.58,35.732-77.77-0.125c-40.877,34.723-75.521,2.371-78.5,0c-1.491,1.375-37.004,35.293-78.751,0
	c-0.373,0.375-38.698,35.857-78.938,0c-1.858,1.498-38.021,35.293-79.147,0c-0.621,0.5-37.366,35.479-79.19,0
	c-3.604,2.994-37.072,34.346-79.223,0c-4.468,3.744-40.336,33.965-79.226,0c-3.479,2.994-39.966,34.346-80.128,0
	c-0.499,0.5-36.127,35.293-80.127,0v-29.822c38,32.564,70.8,6.615,78.998,0c42.233,35.023,77.002,1.621,79.002,0v0.002
	c3,1.994,38.707,35.021,80.371,0c41.211,33.129,72.48,5.615,79.811,0c41.637,35.021,76.666,2.67,79.521,0.549
	c40.756,33.887,75.054,3.551,79.397,0.551h0.127c42.69,35,76.39,1.443,79.12-0.551c40.994,34.078,74.894,3.093,79.113-0.274
	c11.183,8.859,40.286,31.124,77.771-0.136c42.002,33.885,72.77,3.604,77.77-0.139V913.346z M1035.5,871.789
	c-12-0.043-24.053-4.061-37.967-16.004c-0.617,0.502-37.121,35.451-78.9,0c-3.6,2.992-36.82,34.318-78.927,0
	c-4.463,3.742-40.323,33.941-79.171,0c-3.477,2.992-39.688,34.58-79.806,0.264c-0.012,0.012-36.464,35.75-78.149-0.264
	c-40.833,34.697-76.151,2.371-79.125,0c-1.489,1.371-37.318,35.264-79.022,0c-0.37,0.375-38.84,35.832-79.031,0
	c-1.856,1.496-38.086,35.264-79.169,0c-0.416,0.336-17.109,16.166-40.665,15.855l-0.04-29.426
	c22.774,0.49,38.798-14.479,40.699-15.893c40.712,33.863,74.644,3.326,78.982,0.338c0,0,35.322,34.316,79.057-0.338
	c40.948,34.053,74.622,3.031,78.836-0.334c11.134,8.824,41.137,31.088,78.416,0.291c41.772,34.672,78.108-0.26,78.141-0.291
	c42.188,34.996,76.84,1.621,78.84-0.002v0.002c2,1.994,38.9,35.072,80.52,0.078c41.166,33.105,72.754,5.688,80.079,0.078
	c41.59,34.994,75.405,2.275,78.257,0.156c14.078,11.707,27.145,15.713,38.145,15.816V871.789z M1035.5,798.658
	c-1,0.748-35.58,35.73-77.77-0.127c-40.877,34.725-75.521,2.371-78.5,0c-1.491,1.375-37.004,35.293-78.751,0
	c-0.373,0.375-38.698,35.857-78.938,0c-1.858,1.498-38.021,35.293-79.147,0c-0.621,0.5-37.366,35.48-79.19,0
	c-3.604,2.994-37.072,34.346-79.223,0c-4.468,3.744-40.336,33.967-79.226,0c-3.479,2.994-39.966,34.346-80.128,0
	c-0.499,0.5-36.127,35.293-80.127,0v-29.822c38,32.566,70.8,6.615,78.998,0c42.233,35.021,77.002,1.62,79.002,0v0.002
	c3,1.994,38.707,35.02,80.371,0c41.211,33.129,72.48,5.613,79.811,0c41.637,35.02,76.666,3.016,79.521,0.895
	c40.756,33.885,75.054,3.895,79.397,0.895h0.127c42.69,34,76.39,1.1,79.12-0.895c40.994,34.074,74.894,2.92,79.113-0.449
	c11.183,8.859,40.286,31.039,77.771-0.221c42.002,33.885,72.77,3.518,77.77-0.225V798.658z M1035.5,757.1
	c-12-0.042-23.91-4.061-37.826-16.003c-0.617,0.5-37.049,35.45-78.828,0c-3.6,2.992-36.788,34.316-78.893,0
	c-4.464,3.742-40.305,33.94-79.152,0c-3.477,2.992-39.68,34.58-79.797,0.262c-0.012,0.013-36.458,35.75-78.145-0.262
	c-40.833,34.694-76.148,2.37-79.123,0c-1.489,1.371-37.318,35.262-79.021,0c-0.371,0.373-38.84,35.83-79.031,0
	c-1.856,1.496-38.087,35.262-79.169,0c-0.416,0.335-17.108,16.165-40.664,15.855l-0.04-29.426
	c22.774,0.488,38.798-14.48,40.699-15.893c40.711,33.862,74.644,3.325,78.982,0.336c0,0,35.322,34.318,79.057-0.336
	c40.948,34.051,74.621,3.03,78.836-0.335c11.134,8.823,41.138,31.087,78.416,0.29c41.772,34.674,77.967-0.259,78-0.29
	c42.186,34.997,76.698,1.62,78.698-0.002v0.002c2,1.995,39.043,35.072,80.662,0.078c41.164,33.104,72.823,5.688,80.148,0.078
	c41.59,34.994,75.301,2.274,78.152,0.155c14.078,11.709,27.037,15.712,38.037,15.818V757.1z M1035.5,642.412
	c-12-0.043-23.949-4.061-37.865-16.003c-0.617,0.5-37.069,35.45-78.849,0c-3.6,2.992-36.797,34.316-78.901,0
	c-4.464,3.741-40.311,33.939-79.158,0c-3.476,2.992-39.682,34.578-79.799,0.262c-0.012,0.013-36.46,35.749-78.146-0.262
	c-40.833,34.694-76.149,2.37-79.123,0c-1.489,1.371-37.319,35.262-79.021,0c-0.371,0.373-38.84,35.83-79.03,0
	c-1.856,1.496-38.087,35.262-79.169,0c-0.416,0.335-17.109,16.165-40.665,15.855l-0.04-29.426
	c22.774,0.488,38.798-14.48,40.699-15.893c40.712,33.862,74.644,3.325,78.983,0.336c0,0,35.322,34.317,79.056-0.336
	c40.948,34.051,74.622,3.03,78.837-0.335c11.134,8.823,41.137,31.087,78.416,0.29c41.772,34.674,78.007-0.259,78.04-0.29
	c42.186,34.996,76.737,1.62,78.737-0.002v0.002c2,1.994,39.004,35.072,80.623,0.078c41.164,33.104,72.803,5.688,80.128,0.078
	c41.59,34.994,75.329,2.274,78.181,0.155c14.078,11.709,27.068,15.712,38.068,15.818V642.412z M1035.5,527.725
	c-12-0.043-24.227-4.062-38.139-16.003c-0.619,0.499-37.209,35.45-78.988,0c-3.599,2.991-36.865,34.316-78.97,0
	c-4.464,3.741-40.345,33.939-79.192,0c-3.477,2.991-39.698,34.578-79.816,0.262c-0.012,0.013-36.469,35.749-78.156-0.262
	c-40.833,34.694-76.152,2.37-79.126,0c-1.49,1.371-37.321,35.261-79.023,0c-0.371,0.373-38.842,35.83-79.032,0
	c-1.856,1.496-38.087,35.261-79.17,0c-0.415,0.335-17.109,16.165-40.665,15.855l-0.04-29.426
	c22.774,0.488,38.798-14.48,40.699-15.893c40.712,33.861,74.644,3.325,78.982,0.336c0,0,35.322,34.317,79.057-0.336
	c40.948,34.051,74.622,3.03,78.836-0.335c11.134,8.824,41.138,31.087,78.416,0.29c41.772,34.673,78.282-0.259,78.314-0.29
	c42.188,34.996,77.013,1.62,79.013-0.002v0.002c2,1.995,38.729,35.072,80.346,0.078c41.166,33.104,72.668,5.688,79.992,0.078
	c41.59,34.995,75.537,2.275,78.388,0.156c14.078,11.708,27.274,15.712,38.274,15.818V527.725z M1035.5,413.037
	c-12-0.043-24.129-4.061-38.043-16.003c-0.617,0.5-37.157,35.451-78.936,0c-3.6,2.992-36.842,34.317-78.946,0
	c-4.464,3.742-40.333,33.94-79.181,0c-3.477,2.992-39.692,34.579-79.81,0.262c-0.012,0.013-36.466,35.749-78.153-0.262
	c-40.833,34.695-76.15,2.371-79.125,0c-1.489,1.372-37.32,35.261-79.023,0c-0.371,0.373-38.841,35.83-79.031,0
	c-1.856,1.496-38.087,35.261-79.169,0c-0.416,0.335-17.109,16.165-40.665,15.855l-0.04-29.426
	c22.774,0.489,38.798-14.48,40.699-15.892c40.712,33.862,74.644,3.325,78.983,0.336c0,0,35.321,34.317,79.057-0.336
	c40.947,34.051,74.622,3.03,78.836-0.335c11.134,8.824,41.137,31.087,78.416,0.291c41.772,34.673,78.183-0.259,78.216-0.291
	c42.188,34.997,76.915,1.62,78.915-0.002v0.002c2,1.995,38.826,35.073,80.445,0.078c41.164,33.104,72.715,5.688,80.04,0.078
	c41.59,34.995,75.462,2.275,78.313,0.156c14.079,11.708,27.202,15.712,38.202,15.818V413.037z M1035.5,298.349
	c-12-0.043-24.227-4.062-38.139-16.003c-0.619,0.5-37.209,35.45-78.988,0c-3.599,2.992-36.865,34.316-78.97,0
	c-4.464,3.742-40.345,33.94-79.192,0c-3.477,2.992-39.698,34.579-79.816,0.262c-0.012,0.013-36.469,35.75-78.156-0.262
	c-40.833,34.694-76.152,2.371-79.126,0c-1.49,1.371-37.321,35.261-79.023,0c-0.371,0.373-38.842,35.83-79.032,0
	c-1.856,1.496-38.087,35.261-79.17,0c-0.415,0.335-17.109,16.165-40.665,15.855l-0.04-29.426
	c22.774,0.489,38.798-14.48,40.699-15.893c40.712,33.862,74.644,3.325,78.982,0.336c0,0,35.322,34.318,79.057-0.336
	c40.948,34.051,74.622,3.03,78.836-0.335c11.134,8.824,41.138,31.087,78.416,0.29c41.772,34.673,78.282-0.259,78.314-0.29
	c42.188,34.997,77.013,1.62,79.013-0.002v0.002c2,1.995,38.729,35.072,80.346,0.078c41.166,33.104,72.668,5.688,79.992,0.078
	c41.59,34.995,75.537,2.275,78.388,0.156c14.078,11.708,27.274,15.712,38.274,15.818V298.349z M1035.5,225.216
	c-1,0.75-35.76,35.733-77.951-0.126c-40.877,34.725-75.613,2.373-78.592,0c-1.492,1.375-37.046,35.293-78.794,0
	c-0.373,0.375-38.721,35.859-78.96,0c-1.858,1.498-38.032,35.293-79.16,0c-0.621,0.501-37.373,35.48-79.196,0
	c-3.605,2.995-37.075,34.347-79.226,0c-4.468,3.744-40.337,33.967-79.228,0c-3.479,2.995-39.785,34.347-79.948,0
	c-0.499,0.501-35.947,35.293-79.947,0v-29.822c38,32.565,70.8,6.615,78.998,0c42.233,35.023,77.002,1.622,79.002,0v0.002
	c3,1.995,38.525,35.021,80.189,0c41.211,33.13,72.391,5.614,79.721,0c41.637,35.021,76.621,2.736,79.476,0.615
	c40.757,33.886,75.009,3.614,79.352,0.614h0.127c42.69,35,76.39,1.381,79.12-0.614c40.994,34.076,74.896,3.059,79.115-0.309
	c11.181,8.859,40.465,31.107,77.949-0.153c42.002,33.886,72.951,3.589,77.951-0.153V225.216z"/>
</svg>
