<?xml version="1.0" encoding="utf-8"?>
<!-- Generator: Adobe Illustrator 16.2.0, SVG Export Plug-In . SVG Version: 6.00 Build 0)  -->
<!DOCTYPE svg PUBLIC "-//W3C//DTD SVG 1.1//EN" "http://www.w3.org/Graphics/SVG/1.1/DTD/svg11.dtd">
<svg version="1.1" id="Layer_1" xmlns="http://www.w3.org/2000/svg" xmlns:xlink="http://www.w3.org/1999/xlink" x="0px" y="0px"
	 width="1440px" height="1440px" viewBox="0 0 1440 1440" enable-background="new 0 0 1440 1440" xml:space="preserve">
<path fill="none" stroke="#000000" stroke-linecap="round" stroke-linejoin="round" d="M433.146,223.325L433.146,223.325
	L433.146,223.325c2.609,2,37.601,35.117,79.294,0c41.239,33.22,71.963,5.63,79.299,0c41.666,35.117,76.436,2.127,79.294,0
	c40.783,33.978,74.823,3.377,79.169,0l0,0h0.127l0,0l0,0c42.721,35.117,76.442,2,79.175,0c41.023,34.169,74.947,3.377,79.171,0l0,0
	l0,0l0,0l0,0c11.189,8.883,41.787,31.345,79.299,0c42.029,33.978,74.572,3.752,79.296,0v30.027
	c-0.993,0.751-37.078,35.83-79.296-0.126c-40.906,34.819-76.314,2.379-79.295,0c-1.493,1.379-37.396,35.39-79.175,0
	c-0.373,0.376-38.907,35.957-79.175,0c-1.86,1.502-38.139,35.39-79.296,0c-0.622,0.502-37.44,35.577-79.294,0
	c-3.606,3.003-37.12,34.439-79.299,0c-4.472,3.754-40.376,34.06-79.294,0c-3.481,3.003-39.107,34.439-79.298,0
	c-0.499,0.502-35.96,35.39-79.296,0v-29.903c37.49,32.654,71.093,6.633,79.296,0c42.263,35.119,77.183,1.626,79.298,0l0,0l0,0
	V223.325z M433.146,280.757L433.146,280.757L433.146,280.757c2.609,2.001,37.601,35.117,79.294,0
	c41.239,33.22,71.963,5.629,79.299,0c41.666,35.117,76.436,2.127,79.294,0c40.783,33.98,74.823,3.376,79.169,0l0,0h0.127l0,0l0,0
	c42.719,35.117,76.442,2.001,79.175,0c41.021,34.17,74.947,3.376,79.171,0l0,0l0,0l0,0l0,0c11.189,8.883,41.787,31.346,79.299,0
	c42.027,33.98,74.572,3.752,79.296,0v30.027c-0.993,0.751-37.078,35.831-79.296-0.125c-40.906,34.816-76.314,2.379-79.295,0
	c-1.493,1.376-37.396,35.386-79.175,0c-0.373,0.375-38.909,35.956-79.175,0c-1.86,1.5-38.139,35.386-79.296,0
	c-0.622,0.501-37.44,35.575-79.294,0c-3.606,3.003-37.12,34.438-79.299,0c-4.472,3.754-40.376,34.059-79.294,0
	c-3.481,3.003-39.107,34.438-79.298,0c-0.499,0.501-35.96,35.386-79.296,0v-29.904c37.49,32.654,71.093,6.632,79.296,0
	c42.263,35.119,77.183,1.627,79.298,0l0,0l0,0V280.757z M433.146,338.19L433.146,338.19L433.146,338.19
	c2.609,2.001,37.601,35.12,79.294,0c41.239,33.222,71.963,5.63,79.299,0c41.666,35.12,76.436,2.126,79.294,0
	c40.783,33.982,74.823,3.378,79.169,0l0,0h0.127l0,0l0,0c42.719,35.12,76.442,2.001,79.175,0c41.021,34.171,74.947,3.378,79.171,0
	l0,0l0,0l0,0l0,0c11.189,8.883,41.787,31.349,79.299,0c42.027,33.982,74.572,3.753,79.296,0v30.028
	c-0.993,0.75-37.078,35.831-79.296-0.126c-40.906,34.817-76.314,2.378-79.295,0c-1.493,1.379-37.396,35.387-79.175,0
	c-0.373,0.376-38.909,35.957-79.175,0c-1.86,1.502-38.139,35.387-79.296,0c-0.622,0.5-37.44,35.576-79.294,0
	c-3.606,3.004-37.12,34.438-79.299,0c-4.472,3.754-40.376,34.06-79.294,0c-3.481,3.004-39.107,34.438-79.298,0
	c-0.499,0.5-35.96,35.387-79.296,0v-29.904c37.49,32.655,71.093,6.634,79.296,0c42.263,35.122,77.183,1.627,79.298,0l0,0l0,0V338.19
	z M433.146,395.625L433.146,395.625L433.146,395.625c2.609,2.001,37.601,35.119,79.294,0c41.239,33.221,71.963,5.631,79.299,0
	c41.666,35.119,76.436,2.126,79.294,0c40.783,33.981,74.823,3.377,79.169,0l0,0h0.127l0,0l0,0c42.719,35.119,76.442,2.001,79.175,0
	c41.021,34.169,74.947,3.377,79.171,0l0,0l0,0l0,0l0,0c11.189,8.884,41.787,31.348,79.299,0c42.027,33.981,74.572,3.752,79.296,0
	v30.027c-0.993,0.752-37.078,35.832-79.296-0.125c-40.906,34.817-76.314,2.377-79.295,0c-1.493,1.378-37.396,35.387-79.175,0
	c-0.373,0.376-38.909,35.957-79.175,0c-1.86,1.501-38.139,35.387-79.296,0c-0.622,0.5-37.44,35.576-79.294,0
	c-3.606,3.002-37.12,34.438-79.299,0c-4.472,3.754-40.376,34.06-79.294,0c-3.481,3.002-39.107,34.438-79.298,0
	c-0.499,0.5-35.96,35.387-79.296,0v-29.905c37.49,32.655,71.093,6.632,79.296,0c42.263,35.121,77.183,1.626,79.298,0l0,0l0,0
	V395.625z M433.146,453.059L433.146,453.059L433.146,453.059c2.609,2.001,37.601,35.118,79.294,0
	c41.239,33.22,71.963,5.631,79.299,0c41.666,35.118,76.436,2.126,79.294,0c40.783,33.978,74.825,3.378,79.171,0l0,0h0.127l0,0l0,0
	c42.719,35.118,76.442,2.001,79.173,0c41.023,34.169,74.949,3.378,79.173,0l0,0l0,0l0,0l0,0c11.188,8.884,41.787,31.346,79.297,0
	c42.029,33.978,74.574,3.752,79.296,0v30.027c-0.991,0.753-37.078,35.831-79.296-0.125c-40.904,34.818-76.313,2.378-79.295,0
	c-1.491,1.379-37.396,35.388-79.175,0c-0.371,0.376-38.907,35.956-79.173,0c-1.862,1.502-38.139,35.388-79.298,0
	c-0.622,0.501-37.44,35.577-79.294,0c-3.606,3.003-37.12,34.438-79.299,0c-4.472,3.755-40.376,34.059-79.294,0
	c-3.481,3.003-39.107,34.438-79.298,0c-0.499,0.501-35.96,35.388-79.296,0v-29.903c37.49,32.652,71.093,6.631,79.296,0
	C396.11,488.176,431.03,454.684,433.146,453.059L433.146,453.059L433.146,453.059L433.146,453.059z M433.146,510.492
	L433.146,510.492L433.146,510.492c2.609,2.002,37.601,35.118,79.294,0c41.239,33.22,71.963,5.63,79.299,0
	c41.666,35.118,76.436,2.126,79.294,0c40.783,33.979,74.827,3.378,79.173,0l0,0h0.127l0,0l0,0c42.719,35.118,76.44,2.002,79.173,0
	c41.023,34.17,74.949,3.378,79.173,0l0,0l0,0l0,0l0,0c11.188,8.884,41.786,31.347,79.297,0c42.029,33.979,74.574,3.753,79.296,0
	v30.028c-0.993,0.751-37.078,35.83-79.296-0.126c-40.904,34.817-76.313,2.379-79.293,0c-1.493,1.378-37.398,35.388-79.177,0
	c-0.371,0.376-38.907,35.956-79.173,0c-1.864,1.502-38.141,35.388-79.3,0c-0.622,0.501-37.44,35.577-79.294,0
	c-3.606,3.003-37.12,34.439-79.299,0c-4.472,3.754-40.376,34.058-79.294,0c-3.481,3.003-39.107,34.439-79.298,0
	c-0.499,0.501-35.96,35.388-79.296,0V510.49c37.49,32.654,71.093,6.633,79.296,0c42.263,35.12,77.183,1.628,79.298,0l0,0l0,0
	V510.492z M433.146,567.926L433.146,567.926L433.146,567.926c2.609,2.001,37.601,35.118,79.294,0
	c41.239,33.222,71.963,5.631,79.299,0c41.666,35.118,76.436,2.127,79.294,0c40.783,33.979,74.827,3.378,79.173,0l0,0h0.127l0,0l0,0
	c42.719,35.118,76.44,2.001,79.173,0c41.023,34.168,74.949,3.378,79.173,0l0,0l0,0l0,0l0,0c11.188,8.885,41.786,31.347,79.297,0
	c42.029,33.979,74.574,3.753,79.296,0v30.027c-0.993,0.752-37.078,35.83-79.296-0.123c-40.904,34.816-76.313,2.375-79.293,0
	c-1.493,1.376-37.398,35.385-79.177,0c-0.371,0.373-38.907,35.953-79.173,0c-1.864,1.5-38.141,35.385-79.3,0
	c-0.622,0.5-37.44,35.575-79.294,0c-3.606,3.001-37.12,34.438-79.299,0c-4.472,3.753-40.376,34.057-79.294,0
	c-3.481,3.001-39.107,34.438-79.298,0c-0.499,0.5-35.96,35.385-79.296,0v-29.905c37.49,32.652,71.093,6.631,79.296,0
	C396.11,603.044,431.03,569.553,433.146,567.926L433.146,567.926L433.146,567.926L433.146,567.926z M433.146,625.359
	L433.146,625.359L433.146,625.359c2.609,2.001,37.601,35.118,79.294,0c41.239,33.221,71.963,5.629,79.299,0
	c41.666,35.118,76.436,2.124,79.294,0c40.783,33.98,74.827,3.377,79.173,0l0,0h0.127l0,0l0,0c42.719,35.118,76.44,2.001,79.173,0
	c41.023,34.169,74.949,3.377,79.173,0l0,0l0,0l0,0l0,0c11.188,8.884,41.786,31.347,79.297,0c42.029,33.98,74.574,3.752,79.296,0
	v30.027c-0.993,0.753-37.078,35.833-79.296-0.125c-40.904,34.818-76.313,2.378-79.293,0c-1.493,1.378-37.398,35.388-79.177,0
	c-0.371,0.375-38.907,35.958-79.173,0c-1.864,1.501-38.141,35.388-79.3,0c-0.622,0.501-37.44,35.577-79.294,0
	c-3.606,3.003-37.12,34.438-79.299,0c-4.472,3.754-40.376,34.06-79.294,0c-3.481,3.003-39.107,34.438-79.298,0
	c-0.499,0.501-35.96,35.388-79.296,0v-29.903c37.49,32.652,71.093,6.629,79.296,0C396.11,660.477,431.03,626.984,433.146,625.359
	L433.146,625.359L433.146,625.359L433.146,625.359z M433.146,682.793L433.146,682.793L433.146,682.793
	c2.609,2.002,37.601,35.118,79.294,0c41.239,33.222,71.963,5.629,79.299,0c41.666,35.118,76.436,2.127,79.294,0
	c40.783,33.981,74.827,3.378,79.173,0l0,0h0.127l0,0l0,0c42.719,35.118,76.44,2.002,79.173,0c41.023,34.17,74.949,3.378,79.173,0
	l0,0l0,0l0,0l0,0c11.188,8.883,41.786,31.348,79.297,0c42.029,33.981,74.574,3.754,79.296,0v30.028
	c-0.993,0.75-37.078,35.831-79.296-0.126c-40.904,34.817-76.313,2.378-79.293,0c-1.493,1.378-37.398,35.388-79.177,0
	c-0.371,0.376-38.907,35.957-79.173,0c-1.864,1.502-38.141,35.388-79.3,0c-0.622,0.501-37.44,35.577-79.294,0
	c-3.606,3.003-37.12,34.438-79.299,0c-4.472,3.755-40.376,34.059-79.294,0c-3.481,3.003-39.107,34.438-79.298,0
	c-0.499,0.501-35.96,35.388-79.296,0v-29.904c37.49,32.654,71.093,6.632,79.296,0c42.263,35.12,77.183,1.627,79.298,0l0,0l0,0
	V682.793z M433.146,740.229L433.146,740.229L433.146,740.229c2.609,2,37.601,35.116,79.294,0c41.239,33.22,71.963,5.63,79.299,0
	c41.666,35.116,76.436,2.125,79.294,0c40.783,33.979,74.827,3.376,79.173,0l0,0h0.127l0,0l0,0c42.719,35.116,76.44,2,79.173,0
	c41.023,34.168,74.949,3.376,79.173,0l0,0l0,0l0,0l0,0c11.188,8.881,41.786,31.345,79.297,0c42.029,33.979,74.574,3.752,79.296,0
	v30.023c-0.993,0.753-37.078,35.833-79.296-0.123c-40.904,34.818-76.313,2.379-79.293,0c-1.493,1.378-37.398,35.386-79.177,0
	c-0.371,0.377-38.907,35.956-79.173,0c-1.864,1.503-38.141,35.386-79.3,0c-0.622,0.502-37.44,35.577-79.294,0
	c-3.606,3.003-37.12,34.439-79.299,0c-4.472,3.755-40.376,34.06-79.294,0c-3.481,3.003-39.107,34.439-79.298,0
	c-0.499,0.502-35.96,35.386-79.296,0v-29.902c37.49,32.652,71.093,6.631,79.296,0c42.263,35.118,77.183,1.625,79.298,0l0,0l0,0
	V740.229z M433.146,797.661L433.146,797.661L433.146,797.661c2.609,2,37.601,35.118,79.294,0c41.239,33.22,71.963,5.629,79.299,0
	c41.666,35.118,76.436,2.125,79.294,0c40.783,33.979,74.827,3.378,79.173,0l0,0h0.127l0,0l0,0c42.719,35.118,76.44,2,79.173,0
	c41.023,34.168,74.949,3.378,79.173,0l0,0l0,0l0,0l0,0c11.188,8.882,41.786,31.347,79.297,0c42.029,33.979,74.574,3.752,79.296,0
	v30.027c-0.993,0.751-37.078,35.831-79.296-0.125c-40.904,34.816-76.313,2.379-79.293,0c-1.493,1.378-37.398,35.386-79.177,0
	c-0.371,0.373-38.907,35.956-79.173,0c-1.864,1.503-38.141,35.386-79.3,0c-0.622,0.499-37.44,35.575-79.294,0
	c-3.606,3.001-37.12,34.438-79.299,0c-4.472,3.75-40.376,34.059-79.294,0c-3.481,3.001-39.107,34.438-79.298,0
	c-0.499,0.499-35.96,35.386-79.296,0v-29.904c37.49,32.651,71.093,6.63,79.296,0c42.263,35.12,77.183,1.625,79.298,0l0,0l0,0
	V797.661z M433.146,855.095L433.146,855.095L433.146,855.095c2.609,1.998,37.601,35.119,79.294,0
	c41.239,33.22,71.963,5.628,79.299,0c41.666,35.119,76.436,2.125,79.294,0c40.783,33.979,74.827,3.378,79.173,0l0,0h0.127l0,0l0,0
	c42.719,35.119,76.44,1.998,79.173,0c41.023,34.171,74.949,3.378,79.173,0l0,0l0,0l0,0l0,0c11.188,8.883,41.786,31.345,79.297,0
	c42.029,33.979,74.574,3.753,79.296,0v30.023c-0.993,0.754-37.078,35.835-79.296-0.122c-40.904,34.817-76.313,2.38-79.293,0
	c-1.493,1.377-37.398,35.388-79.177,0c-0.371,0.376-38.907,35.957-79.173,0c-1.864,1.504-38.141,35.388-79.3,0
	c-0.622,0.501-37.44,35.576-79.294,0c-3.606,3.003-37.12,34.439-79.299,0c-4.472,3.754-40.376,34.059-79.294,0
	c-3.481,3.003-39.107,34.439-79.298,0c-0.499,0.501-35.96,35.388-79.296,0v-29.901c37.49,32.65,71.093,6.631,79.296,0
	C396.11,890.214,431.03,856.719,433.146,855.095L433.146,855.095L433.146,855.095L433.146,855.095z M433.146,912.527
	L433.146,912.527L433.146,912.527c2.609,2,37.601,35.118,79.294,0c41.239,33.222,71.963,5.63,79.299,0
	c41.666,35.118,76.436,2.125,79.294,0c40.783,33.98,74.827,3.378,79.173,0l0,0h0.127l0,0l0,0c42.719,35.118,76.44,2,79.173,0
	c41.023,34.17,74.949,3.378,79.173,0l0,0l0,0l0,0l0,0c11.188,8.883,41.786,31.347,79.297,0c42.029,33.98,74.574,3.754,79.296,0
	v30.027c-0.993,0.751-37.078,35.833-79.296-0.125c-40.904,34.818-76.313,2.379-79.293,0c-1.493,1.378-37.398,35.386-79.177,0
	c-0.371,0.375-38.907,35.958-79.173,0c-1.864,1.503-38.141,35.386-79.3,0c-0.622,0.5-37.44,35.577-79.294,0
	c-3.606,3.003-37.12,34.439-79.299,0c-4.472,3.755-40.376,34.06-79.294,0c-3.481,3.003-39.107,34.439-79.298,0
	c-0.499,0.5-35.96,35.386-79.296,0v-29.902c37.49,32.654,71.093,6.633,79.296,0C396.11,947.646,431.03,914.15,433.146,912.527
	L433.146,912.527L433.146,912.527L433.146,912.527z M433.146,969.96L433.146,969.96L433.146,969.96c2.609,2,37.601,35.118,79.294,0
	c41.239,33.222,71.963,5.629,79.299,0c41.666,35.118,76.436,2.127,79.294,0c40.783,33.98,74.827,3.378,79.173,0l0,0h0.127l0,0l0,0
	c42.719,35.118,76.44,2,79.173,0c41.023,34.17,74.949,3.378,79.173,0l0,0l0,0l0,0l0,0c11.188,8.882,41.786,31.349,79.297,0
	c42.029,33.98,74.574,3.756,79.296,0v30.027c-0.993,0.751-37.078,35.829-79.296-0.125c-40.904,34.817-76.313,2.379-79.293,0
	c-1.493,1.376-37.398,35.386-79.177,0c-0.371,0.376-38.907,35.954-79.173,0c-1.864,1.502-38.141,35.386-79.3,0
	c-0.622,0.499-37.44,35.579-79.294,0c-3.606,3.001-37.12,34.439-79.299,0c-4.472,3.752-40.376,34.061-79.294,0
	c-3.481,3.001-39.107,34.439-79.298,0c-0.499,0.499-35.96,35.386-79.296,0V969.96c37.49,32.651,71.093,6.632,79.296,0
	C396.11,1005.078,431.03,971.585,433.146,969.96L433.146,969.96L433.146,969.96L433.146,969.96z M238.911,187.683v864h864.001v-864
	H238.911z"/>
</svg>
