<?xml version="1.0" encoding="UTF-8" standalone="no"?>
<!-- Generator: Adobe Illustrator 16.2.0, SVG Export Plug-In . SVG Version: 6.00 Build 0)  -->

<svg
   xmlns:dc="http://purl.org/dc/elements/1.1/"
   xmlns:cc="http://creativecommons.org/ns#"
   xmlns:rdf="http://www.w3.org/1999/02/22-rdf-syntax-ns#"
   xmlns:svg="http://www.w3.org/2000/svg"
   xmlns="http://www.w3.org/2000/svg"
   xmlns:sodipodi="http://sodipodi.sourceforge.net/DTD/sodipodi-0.dtd"
   xmlns:inkscape="http://www.inkscape.org/namespaces/inkscape"
   version="1.1"
   preserveAspectRatio="none"
   id="Layer_1"
   x="0px"
   y="0px"
   width="1440px"
   height="1440px"
   viewBox="0 0 1920 1080"
   enable-background="new 0 0 1440 1440"
   xml:space="preserve"
   sodipodi:docname="WAVE 2.svg"
   inkscape:version="0.92.4 (5da689c313, 2019-01-14)"><metadata
   id="metadata9"><rdf:RDF><cc:Work
       rdf:about=""><dc:format>image/svg+xml</dc:format><dc:type
         rdf:resource="http://purl.org/dc/dcmitype/StillImage" /></cc:Work></rdf:RDF></metadata><defs
   id="defs7" /><sodipodi:namedview
   pagecolor="#ffffff"
   bordercolor="#666666"
   borderopacity="1"
   objecttolerance="10"
   gridtolerance="10"
   guidetolerance="10"
   inkscape:pageopacity="0"
   inkscape:pageshadow="2"
   inkscape:window-width="1920"
   inkscape:window-height="1017"
   id="namedview5"
   showgrid="false"
   inkscape:zoom="0.65555555"
   inkscape:cx="924.32071"
   inkscape:cy="128.47358"
   inkscape:window-x="-8"
   inkscape:window-y="-8"
   inkscape:window-maximized="1"
   inkscape:current-layer="Layer_1" />
<path
   stroke-miterlimit="10"
   d="M -165.28008,-106.76152 V 1603.8384 H 1607.1265 V -106.76152 Z m 75.901673,295.9041 c 77.953078,64.47614 145.238886,13.09677 162.05623,0 86.636627,69.34068 157.961637,3.21133 162.064427,0 v 0.004 c 6.15419,3.94982 79.40546,69.33672 164.8728,0 84.54216,65.5928 148.68522,11.11693 163.72606,0 85.41194,69.33672 157.27031,5.72576 163.12912,1.52648 83.60669,67.09156 153.9655,7.46605 162.87267,1.52647 h 0.26053 c 87.57622,69.29514 156.70627,2.42532 162.30847,-1.52647 84.0951,67.46772 153.6373,5.90395 162.2922,-0.76424 22.9387,17.53762 82.6425,61.50836 159.5392,-0.38211 86.1585,67.08958 149.276,7.02852 159.5329,-0.38013 v 59.28894 c -2.0513,1.4829 -72.9846,70.74437 -159.5329,-0.24949 -83.855,68.75068 -154.9277,4.69822 -161.0407,0 -3.0547,2.7243 -75.9059,69.87524 -161.5456,0 -0.7651,0.74245 -79.38695,70.99584 -161.93309,0 -3.81148,2.96783 -77.99409,69.87524 -162.36188,0 -1.27186,0.99191 -76.65453,70.24548 -162.45214,0 -7.39325,5.9297 -76.04732,68.00229 -162.51575,0 -9.16563,7.41458 -82.74513,67.24996 -162.52395,0 -7.1368,5.9297 -81.9861,68.00229 -164.376345,0 -1.023642,0.99191 -74.11079125,69.87524 -164.372252,0 v -59.0434 z m 0,227.06629 c 77.953078,64.47615 145.238886,13.09677 162.05623,0 86.636627,69.34068 157.961637,3.21133 162.064427,0 v 0.004 c 6.15419,3.95179 79.40546,69.33671 164.8728,0 84.54216,65.59279 148.68522,11.11692 163.72606,0 85.41194,69.33671 157.27031,5.04667 163.12912,0.84737 83.60669,67.08759 153.9655,6.78302 162.87267,0.84343 h 0.26053 c 87.57622,69.29513 156.70627,3.1064 162.30847,-0.84343 84.0951,67.46376 153.6373,6.24251 162.2922,-0.42566 22.9387,17.53761 82.6425,61.68058 159.5392,-0.20788 86.1585,67.08956 149.276,7.19678 159.5329,-0.21185 v 59.28892 c -2.0513,1.48291 -72.9846,70.74439 -159.5329,-0.2475 -83.855,68.74871 -154.9277,4.69822 -161.0407,0 -3.0547,2.72232 -75.9059,69.87327 -161.5456,0 -0.7651,0.74246 -79.38695,70.99189 -161.93309,0 -3.81148,2.96585 -77.99409,69.87327 -162.36188,0 -1.27186,0.98994 -76.65453,70.2435 -162.45214,0 -7.39325,5.92771 -76.04732,68.00032 -162.51575,0 -9.16563,7.4126 -82.74513,67.24798 -162.52395,0 -7.1368,5.92771 -81.9861,68.00032 -164.376345,0 -1.023642,0.98994 -74.11079125,69.87327 -164.372252,0 v -59.04736 z m 0,227.0663 c 77.953078,64.47416 145.238886,13.09481 162.05623,0 86.636627,69.3387 157.961637,3.20937 162.064427,0 v 0.004 c 6.15419,3.94982 79.76652,69.33671 165.23589,0 84.5401,65.59081 148.86986,11.11493 163.90864,0 85.41195,69.33671 157.36057,5.35354 163.2173,1.15427 83.60674,67.08757 154.05783,7.09184 162.965,1.15226 h 0.26053 c 87.57209,69.29515 156.70409,2.79556 162.30449,-1.15226 84.095,67.46573 153.6414,6.09004 162.2961,-0.58012 22.9388,17.5396 82.2775,61.60537 159.1763,-0.28708 86.1585,67.08958 148.9108,7.12157 159.1677,-0.28905 v 59.28694 c -2.0514,1.48291 -72.6195,70.74637 -159.1677,-0.24747 -83.855,68.74867 -154.7493,4.69622 -160.8604,0 -3.0588,2.72229 -75.8135,69.87324 -161.4553,0 -0.763,0.74243 -79.33761,70.99384 -161.88583,0 -3.81147,2.96384 -77.97357,69.87324 -162.34136,0 -1.27392,0.98992 -76.64222,70.24348 -162.43983,0 -7.39324,5.92571 -76.04322,68.00028 -162.50958,0 -9.16772,7.41061 -82.74105,67.24795 -162.5219,0 -7.13477,5.92571 -82.34716,68.00028 -164.737396,0 -1.023667,0.98992 -74.47390256,69.87324 -164.735364,0 v -59.04145 z m 0,227.06631 c 77.953078,64.47417 145.238886,13.0948 162.05623,0 86.636627,69.33868 157.961637,3.20936 162.064427,0 v 0.004 c 6.15419,3.94982 79.76652,69.33672 165.23589,0 84.5401,65.59082 148.86986,11.11494 163.90864,0 85.41195,69.33672 157.36057,5.66242 163.2173,1.46312 83.60674,67.0876 154.05783,7.40072 162.965,1.46114 h 0.26053 c 87.57209,69.29514 156.70409,2.4867 162.30449,-1.46114 84.095,67.46179 153.6414,5.93563 162.2961,-0.73453 22.9388,17.5396 82.2775,61.52814 159.1763,-0.3623 86.1585,67.08757 148.9108,7.04236 159.1677,-0.36827 v 59.28695 c -2.0514,1.4829 -72.6195,70.74445 -159.1677,-0.24748 -83.855,68.74869 -154.7493,4.69622 -160.8604,0 -3.0588,2.7223 -75.8135,69.87325 -161.4553,0 -0.763,0.74244 -79.33761,70.99193 -161.88583,0 -3.81147,2.96583 -77.97357,69.87325 -162.34136,0 -1.27392,0.98993 -76.64222,70.24349 -162.43983,0 -7.39324,5.92572 -76.04322,68.0003 -162.50958,0 -9.16772,7.41063 -82.74105,67.24795 -162.5219,0 -7.13477,5.92572 -82.34716,68.0003 -164.737396,0 -1.023667,0.98993 -74.47390256,69.87325 -164.735364,0 V 870.34148 Z M 1535.3276,1530.5341 c -24.6167,-0.085 -49.6991,-8.0403 -78.2381,-31.6818 -1.2699,0.986 -76.3305,70.1841 -162.0358,0 -7.383,5.9197 -75.6249,67.9408 -161.9987,0 -9.1574,7.4047 -82.7637,67.1945 -162.45424,0 -7.1327,5.9197 -81.43634,68.4597 -163.73425,0.5187 -0.0247,0.024 -74.81241,70.7762 -160.32897,-0.5187 -83.76466,68.6874 -156.21795,4.6902 -162.3188,0 -3.05657,2.7143 -76.56017,69.8099 -162.1075,0 -0.76107,0.7386 -79.68035,70.9384 -162.12599,0 -3.80738,2.9579 -78.131535,69.8099 -162.4090614,0 -0.8513215,0.6612 -35.0973366,32.0024 -83.4200326,31.3888 l -0.082,-58.2554 c 46.718507,0.9662 79.5900695,-28.6686 83.4897802,-31.4661 83.5164638,67.0402 153.1244538,6.5811 162.0234138,0.6654 0,0 72.45941,67.9408 162.17725,-0.6654 84.00058,67.4164 153.07932,5.997 161.72391,-0.6652 22.84024,17.4703 84.39033,61.55 160.86231,0.5762 85.69094,68.6457 160.58743,-0.5148 160.65307,-0.5762 86.54432,69.2872 157.98422,3.2055 162.087,0 v 0 c 4.10279,3.9479 79.44851,69.4377 164.82151,0.1544 84.4477,65.5415 149.0708,11.2615 164.0953,0.1545 85.3176,69.2833 154.9563,4.5043 160.8048,0.3089 28.8795,23.1783 55.9498,31.1056 78.5151,31.3174 z m 0,-146.7652 c -2.0514,1.4849 -72.9886,70.7443 -159.537,-0.2474 -83.8549,68.7467 -154.9235,4.6942 -161.0346,0 -3.0588,2.7222 -75.9098,69.8752 -161.5496,0 -0.7651,0.7424 -79.38495,70.9917 -161.93314,0 -3.81149,2.9658 -77.99614,69.8752 -162.36188,0 -1.27394,0.9899 -76.65248,70.2434 -162.4501,0 -7.39324,5.9276 -76.04938,68.0003 -162.51778,0 -9.16564,7.4126 -82.74514,67.2459 -162.52395,0 -7.13681,5.9276 -81.98612,68.0003 -164.374305,0 -1.023642,0.9899 -74.1108019,69.8752 -164.372255,0 v -59.0434 c 77.9530817,64.4721 145.238877,13.0967 162.056222,0 86.636648,69.3405 157.961648,3.2094 162.064438,0 v 0 c 6.15419,3.948 79.4034,69.3367 164.87279,0 84.54011,65.5908 148.68523,11.117 163.724,0 85.414,69.3367 157.27238,5.2863 163.12911,1.087 83.60673,67.0916 153.96553,7.0305 162.87473,1.0909 h 0.26053 c 87.57409,69.2951 156.70619,2.857 162.30649,-1.0909 84.0949,67.4696 153.6373,6.1236 162.2921,-0.5426 22.9407,17.5397 82.6426,61.6214 159.5392,-0.2693 86.1627,67.0878 149.2802,7.1355 159.5371,-0.2751 v 59.287 z m 0,-82.2771 c -24.6167,-0.085 -49.3423,-8.0402 -77.8852,-31.6857 -1.2658,0.9939 -76.15,70.1881 -161.8552,0 -7.3851,5.9239 -75.5326,67.9449 -161.9105,0 -9.1554,7.4087 -82.7186,67.1985 -162.41129,0 -7.13271,5.9239 -81.41583,68.4637 -163.71375,0.5228 -0.0246,0.024 -74.80211,70.78 -160.31458,-0.5228 -83.76469,68.6953 -156.2159,4.6943 -162.31676,0 -3.05453,2.7144 -76.55402,69.8179 -162.10546,0 -0.75901,0.7425 -79.67624,70.9425 -162.12393,0 -3.80737,2.9619 -78.129473,69.8179 -162.4069988,0 -0.8533859,0.6653 -35.0973492,32.0066 -83.4200472,31.3908 l -0.08201,-58.2595 c 46.718511,0.9703 79.5900861,-28.6663 83.4897968,-31.4659 83.5164512,67.044 153.1244692,6.5851 162.0234092,0.6693 0,0 72.45942,67.9409 162.17725,-0.6693 84.00059,67.4204 153.07932,6.001 161.7239,-0.6612 22.84026,17.4703 84.38831,61.5498 160.8623,0.5761 85.69095,68.6457 160.2305,-0.5147 160.2982,-0.5761 86.54431,69.2872 157.62931,3.2094 161.73211,0 v 0 c 4.10279,3.9477 79.79916,69.4377 165.17836,0.1543 84.4478,65.5434 149.2474,11.2615 164.2738,0.1545 85.3176,69.2833 154.6855,4.5043 160.5362,0.3089 28.8795,23.1782 55.6851,31.1095 78.2504,31.3135 z m 0,-144.789 c -2.0514,1.4808 -72.9886,70.7404 -159.537,-0.2516 -83.8549,68.7507 -154.9235,4.6942 -161.0346,0 -3.0588,2.7223 -75.9098,69.8752 -161.5496,0 -0.7651,0.7424 -79.38495,70.992 -161.93314,0 -3.81149,2.9658 -77.99614,69.8752 -162.36188,0 -1.27394,0.9899 -76.65248,70.2454 -162.4501,0 -7.39324,5.9278 -76.04938,68.0002 -162.51778,0 -9.16564,7.4126 -82.74514,67.2499 -162.52395,0 -7.13681,5.9278 -81.98612,68.0002 -164.374305,0 -1.023642,0.9899 -74.1108019,69.8752 -164.372255,0 v -59.0434 c 77.9530817,64.4762 145.238877,13.0967 162.056222,0 86.636648,69.3367 157.961648,3.2073 162.064438,0 v 0 c 6.15419,3.9478 79.4034,69.3347 164.87279,0 84.54011,65.5907 148.68523,11.1129 163.724,0 85.414,69.3347 157.27238,5.9711 163.12911,1.7719 83.60673,67.0876 153.96553,7.7115 162.87473,1.7719 h 0.26053 c 87.57409,67.3152 156.70619,2.1779 162.30649,-1.7719 84.0949,67.4618 153.6373,5.7812 162.2921,-0.889 22.9407,17.5397 82.6426,61.453 159.5392,-0.4375 86.1627,67.0876 149.2802,6.9652 159.5371,-0.4454 v 59.2909 z m 0,-82.2792 c -24.6167,-0.083 -49.0488,-8.0402 -77.596,-31.6838 -1.2657,0.99 -76.0022,70.1861 -161.7075,0 -7.385,5.9238 -75.4669,67.9409 -161.8408,0 -9.1576,7.4086 -82.6816,67.1965 -162.37222,0 -7.13271,5.9238 -81.3994,68.4637 -163.69528,0.5188 -0.0246,0.025 -74.78984,70.78 -160.30639,-0.5188 -83.76466,68.6893 -156.20975,4.6923 -162.31265,0 -3.05453,2.7145 -76.55402,69.8139 -162.1034,0 -0.76107,0.7385 -79.67624,70.9385 -162.12392,0 -3.8074,2.9619 -78.131556,69.8139 -162.4070297,0 -0.8533725,0.6633 -35.0952853,32.0045 -83.4179743,31.3908 l -0.082,-58.2594 c 46.718503,0.9662 79.5900781,-28.66843 83.4897887,-31.46596 83.5143983,67.04196 153.1244353,6.58302 162.0234053,0.66523 0,0 72.45943,67.94493 162.17725,-0.66523 84.0006,67.41626 153.07728,5.99897 161.72391,-0.66327 22.84024,17.46833 84.39035,61.54803 160.86231,0.57416 85.69095,68.64977 159.94124,-0.51277 160.00893,-0.57416 86.54023,69.28923 157.33802,3.20737 161.44082,-0.004 v 0.004 c 4.10279,3.94982 80.09255,69.43773 165.46955,0.15443 84.4438,65.5413 149.3889,11.26146 164.4155,0.15444 85.3175,69.28326 154.4723,4.5022 160.3207,0.30686 28.8795,23.1822 55.4636,31.1076 78.0289,31.3175 v 58.7484 z m 0,-227.06633 c -24.6167,-0.0851 -49.1288,-8.04022 -77.676,-31.68372 -1.2657,0.98994 -76.0433,70.18609 -161.7505,0 -7.3851,5.92375 -75.4855,67.94092 -161.8574,0 -9.1574,7.40667 -82.6938,67.19451 -162.38441,0 -7.13066,5.92375 -81.40354,68.45964 -163.6994,0.51873 -0.0247,0.0257 -74.79393,70.77805 -160.30843,-0.51873 -83.76468,68.6893 -156.21181,4.69228 -162.31266,0 -3.05453,2.71439 -76.55606,69.81386 -162.1034,0 -0.76108,0.73849 -79.67624,70.93842 -162.12188,0 -3.80739,2.96187 -78.131528,69.81386 -162.4070011,0 -0.8533848,0.66325 -35.0973499,32.00446 -83.4200469,31.3907 l -0.08201,-58.25939 c 46.7185,0.96617 79.5900859,-28.66839 83.4897977,-31.46592 83.5164513,67.04204 153.1244503,6.58302 162.0254603,0.66523 0,0 72.45943,67.94288 162.1752,-0.66523 84.00059,67.41622 153.07932,5.99896 161.72595,-0.66326 22.84026,17.46831 84.38831,61.54793 160.8623,0.57415 85.69096,68.6497 160.02331,-0.51278 160.091,-0.57415 86.54023,69.28721 157.41803,3.20737 161.52081,-0.004 v 0.004 c 4.1028,3.94784 80.01262,69.43768 165.38962,0.15441 84.4438,65.54133 149.3478,11.26146 164.3744,0.15445 85.3176,69.28325 154.5296,4.50219 160.3802,0.30686 28.8796,23.1822 55.5273,31.10759 78.0926,31.31746 v 58.74841 z m 0,-227.06432 c -24.6167,-0.0851 -49.6991,-8.0422 -78.2381,-31.68371 -1.2699,0.98795 -76.3305,70.18607 -162.0358,0 -7.383,5.92175 -75.6249,67.9409 -161.9987,0 -9.1574,7.40666 -82.7637,67.19451 -162.45424,0 -7.1327,5.92175 -81.43634,68.45964 -163.73425,0.51872 -0.0247,0.0257 -74.81241,70.77805 -160.32897,-0.51872 -83.76466,68.68929 -156.21795,4.69226 -162.3188,0 -3.05657,2.71438 -76.56017,69.81187 -162.1075,0 -0.76107,0.73847 -79.68035,70.93841 -162.12599,0 -3.80738,2.96186 -78.131535,69.81187 -162.4090614,0 -0.8513215,0.66325 -35.0973366,32.00445 -83.4200326,31.39069 l -0.082,-58.25939 c 46.718507,0.96616 79.5900695,-28.6684 83.4897802,-31.46594 83.5164638,67.04007 153.1244538,6.58305 162.0234138,0.66524 0,0 72.45941,67.94289 162.17725,-0.66524 84.00058,67.41625 153.07932,5.99898 161.72391,-0.66324 22.84024,17.47028 84.39033,61.54792 160.86231,0.57415 85.69094,68.64773 160.58743,-0.51278 160.65307,-0.57415 86.54432,69.28722 157.98422,3.20737 162.087,-0.004 v 0.004 c 4.10279,3.94982 79.44851,69.43768 164.82151,0.15442 84.4477,65.54131 149.0708,11.26145 164.0953,0.15442 85.3176,69.28524 154.9563,4.50419 160.8048,0.30887 28.8795,23.18021 55.9498,31.10758 78.5151,31.31743 z m 0,-227.0663 c -24.6167,-0.0851 -49.4982,-8.04022 -78.0413,-31.68371 -1.2656,0.98992 -76.2236,70.18803 -161.929,0 -7.385,5.92373 -75.5776,67.94288 -161.9495,0 -9.1574,7.40863 -82.739,67.19647 -162.43162,0 -7.13272,5.92373 -81.42404,68.46161 -163.72197,0.51872 -0.0246,0.0257 -74.80622,70.77805 -160.3228,-0.51872 -83.76466,68.69126 -156.21384,4.69424 -162.31675,0 -3.05453,2.71636 -76.55812,69.81187 -162.1075,0 -0.76109,0.73848 -79.6783,70.93841 -162.12393,0 -3.80738,2.96187 -78.131542,69.81187 -162.4070148,0 -0.8533736,0.66325 -35.0973492,32.00445 -83.4200462,31.39068 l -0.08201,-58.25938 c 46.718524,0.96814 79.5900864,-28.66839 83.489797,-31.46395 83.516464,67.04205 153.124434,6.58303 162.025444,0.66522 0,0 72.4574,67.94289 162.17729,-0.66522 83.99852,67.41624 153.0793,5.99898 161.72388,-0.66326 22.84026,17.47029 84.38831,61.54794 160.86232,0.57615 85.69094,68.64772 160.38434,-0.51279 160.45202,-0.57615 86.54432,69.28919 157.7832,3.20738 161.88598,-0.004 v 0.004 c 4.10279,3.94983 79.64741,69.43967 165.02451,0.15443 84.4438,65.54132 149.1673,11.26145 164.1938,0.15443 85.3177,69.28523 154.8025,4.50418 160.6511,0.30885 28.8816,23.18022 55.802,31.10758 78.3673,31.31745 z m 0,-227.06631 c -24.6167,-0.0851 -49.6991,-8.04219 -78.2381,-31.68372 -1.2699,0.98995 -76.3305,70.18607 -162.0358,0 -7.383,5.92376 -75.6249,67.94091 -161.9987,0 -9.1574,7.40866 -82.7637,67.19649 -162.45424,0 -7.1327,5.92376 -81.43634,68.46161 -163.73425,0.51874 -0.0247,0.0257 -74.81241,70.78003 -160.32897,-0.51874 -83.76466,68.68931 -156.21795,4.69426 -162.3188,0 -3.05657,2.71441 -76.56017,69.81188 -162.1075,0 -0.76107,0.73848 -79.68035,70.93843 -162.12599,0 -3.80738,2.96189 -78.131535,69.81188 -162.4090614,0 -0.8513215,0.66326 -35.0973366,32.00447 -83.4200326,31.39071 l -0.082,-58.25939 C -39.207342,108.57608 -6.3357795,78.939543 -2.4360688,76.141996 81.080395,143.18406 150.68839,82.725042 159.58735,76.80723 c 0,0 72.45941,67.94488 162.17725,-0.665234 84.00058,67.416254 153.07932,5.998988 161.72391,-0.663241 22.84024,17.470282 84.39033,61.547935 160.86231,0.574156 85.69094,68.647709 160.58743,-0.512781 160.65307,-0.574156 86.54432,69.289185 157.98422,3.207369 162.087,-0.004 v 0.004 c 4.10279,3.94982 79.44851,69.437675 164.82151,0.154421 84.4477,65.541314 149.0708,11.261452 164.0953,0.154433 85.3176,69.285231 154.9563,4.504185 160.8048,0.308855 28.8795,23.180218 55.9498,31.107576 78.5151,31.317446 z m 0,-144.793168 c -2.0514,1.48489 -73.3579,70.746369 -159.9084,-0.249472 -83.8548,68.75068 -155.1122,4.69821 -161.2234,0 -3.0607,2.722311 -75.9959,69.87524 -161.6376,0 -0.7652,0.74245 -79.43217,70.995841 -161.9783,0 -3.81152,2.965842 -78.01874,69.87524 -162.38858,0 -1.27391,0.99191 -76.66684,70.245469 -162.46239,0 -7.39528,5.929692 -76.05553,68.002287 -162.52393,0 -9.16564,7.4126 -82.74719,67.249948 -162.52806,0 -7.1368,5.929692 -81.61482,68.002287 -164.005055,0 -1.023642,0.99191 -73.7415465,69.87524 -164.003001,0 v -59.043411 c 77.953072,64.474171 145.238879,13.09678 162.056235,0 86.636631,69.340677 157.961641,3.211328 162.064421,0 v 0.004 c 6.15419,3.949819 79.03006,69.336716 164.49945,0 84.54009,65.592792 148.50265,11.114939 163.53937,0 85.414,69.336716 157.18006,5.416898 163.0368,1.21762 83.60876,67.089562 153.8732,7.155206 162.78242,1.215625 h 0.26054 c 87.57418,69.295146 156.70618,2.734193 162.30648,-1.215625 84.0949,67.465743 153.6415,6.056389 162.2963,-0.611782 22.9367,17.539592 83.0097,61.58754 159.9044,-0.302926 86.1626,67.089576 149.6513,7.105727 159.9082,-0.302912 v 59.288954 z"
   id="path2"
   inkscape:connector-curvature="0"
   style="fill:#460096;stroke:#000075;stroke-width:2.015;stroke-miterlimit:10;stroke-opacity:1;fill-opacity:1;stroke-dasharray:none" />
</svg>