<?xml version="1.0" encoding="UTF-8" standalone="no"?>
<!-- Generator: Adobe Illustrator 16.2.0, SVG Export Plug-In . SVG Version: 6.00 Build 0)  -->

<svg
   xmlns:dc="http://purl.org/dc/elements/1.1/"
   xmlns:cc="http://creativecommons.org/ns#"
   xmlns:rdf="http://www.w3.org/1999/02/22-rdf-syntax-ns#"
   xmlns:svg="http://www.w3.org/2000/svg"
   xmlns="http://www.w3.org/2000/svg"
   xmlns:sodipodi="http://sodipodi.sourceforge.net/DTD/sodipodi-0.dtd"
   xmlns:inkscape="http://www.inkscape.org/namespaces/inkscape"
   version="1.1"
   preserveAspectRatio="none"
   id="Layer_1"
   x="0px"
   y="0px"
   width="1440px"
   height="1440px"
   viewBox="0 0 1920 1080"
   enable-background="new 0 0 1440 1440"
   xml:space="preserve"
   sodipodi:docname="WAVE 1.svg"
   inkscape:version="0.92.4 (5da689c313, 2019-01-14)"><metadata
   id="metadata9"><rdf:RDF><cc:Work
       rdf:about=""><dc:format>image/svg+xml</dc:format><dc:type
         rdf:resource="http://purl.org/dc/dcmitype/StillImage" /></cc:Work></rdf:RDF></metadata><defs
   id="defs7" /><sodipodi:namedview
   pagecolor="#ffffff"
   bordercolor="#666666"
   borderopacity="1"
   objecttolerance="10"
   gridtolerance="10"
   guidetolerance="10"
   inkscape:pageopacity="0"
   inkscape:pageshadow="2"
   inkscape:window-width="1920"
   inkscape:window-height="1017"
   id="namedview5"
   showgrid="false"
   inkscape:zoom="0.41353141"
   inkscape:cx="156.6895"
   inkscape:cy="884.08609"
   inkscape:window-x="-8"
   inkscape:window-y="-8"
   inkscape:window-maximized="1"
   inkscape:current-layer="Layer_1" />
<path
   d="M -213.96539,-102.31803 H 2097.6231 V 1175.4584 H -213.96539 Z M 305.69997,1054.5976 c -5.66125,2.4032 -99.08784,51.9363 -212.157559,0 -21.946676,9.808 -111.849719,48.2877 -212.152211,0 v 44.2222 c 115.9431458,52.3326 210.817181,0.738 212.152211,0 107.528869,50.9321 202.844329,4.4383 212.157559,0 104.12303,50.3731 200.18226,5.5489 212.14686,0 112.84764,50.9321 202.51256,4.4383 212.16023,0 111.97811,52.6182 210.48262,0.738 212.14678,0 110.11876,52.3326 207.17606,2.2214 212.16286,0 107.7296,53.1726 210.8307,0.5562 211.8233,0 111.7774,52.3326 207.8394,2.0352 211.8338,0 7.9728,3.5184 102.7077,51.4913 212.1441,0 112.9521,53.1726 209.4956,1.2957 212.1521,0.185 v -44.4072 c -12.6332,5.5547 -99.7057,50.2532 -212.1521,0 -100.3586,46.3622 -182.2218,13.1356 -212.1549,0 v 0 0 0 0 c -11.301,4.9957 -102.0682,50.5343 -211.823,0 -7.312,2.9578 -97.5308,51.9363 -211.8233,0 v 0 0 h -0.3397 v 0 c -11.6275,4.9957 -102.7104,50.2532 -211.82316,0 -7.64646,3.1456 -100.67162,51.9363 -212.14678,0 -19.62708,8.3247 -101.8275,49.1323 -212.16023,0 -111.5474,51.9363 -205.16663,2.9578 -212.14686,0 v 0 z m 0,-84.93819 c -5.66125,2.40027 -99.08784,51.93779 -212.157559,0 -21.946676,9.80959 -111.849719,48.29229 -212.152211,0 v 44.22229 c 115.9431458,52.3327 210.817181,0.7395 212.152211,0 107.528869,50.9321 202.844329,4.4412 212.157559,0 104.12303,50.3717 200.18226,5.5533 212.14686,0 112.84764,50.9321 202.51256,4.4412 212.16023,0 111.97811,52.6152 210.48262,0.7395 212.14678,0 110.11876,52.3327 207.17606,2.2229 212.16286,0 107.7296,53.1787 210.8307,0.5546 211.8233,0 111.7774,52.3327 207.8394,2.038 211.8338,0 7.9728,3.5184 102.7077,51.4926 212.1441,0 112.9521,53.1787 209.4956,1.2956 212.1521,0.1849 v -44.40719 c -12.6332,5.55181 -99.7057,50.25329 -212.1521,0 -100.3586,46.35939 -182.2218,13.13713 -212.1549,0 v 0 0 0 0 c -11.301,4.99574 -102.0682,50.53429 -211.823,0 -7.312,2.9578 -97.5308,51.93629 -211.8233,0 v 0 0 h -0.3397 v 0 c -11.6275,4.99574 -102.7104,50.25329 -211.82316,0 -7.64646,3.14267 -100.67162,51.93629 -212.14678,0 -19.62708,8.32625 -101.8275,49.13229 -212.16023,0 -111.5474,51.93629 -205.16663,2.9578 -212.14686,0 v 0 z m 0,-84.93664 c -5.66125,2.40174 -99.08784,51.93777 -212.157559,0 -21.946676,9.80664 -111.849719,48.28634 -212.152211,0 v 44.22081 c 115.9431458,52.33559 210.817181,0.74094 212.152211,0 107.528869,50.93211 202.844329,4.44117 212.157559,0 104.12303,50.37013 200.18226,5.55183 212.14686,0 112.84764,50.93211 202.51256,4.44117 212.16023,0 111.97811,52.61363 210.48262,0.74094 212.14678,0 110.11876,52.33559 207.17606,2.22429 212.16286,0 107.7296,53.17711 210.8307,0.55608 211.8233,0 111.7774,52.33559 207.8394,2.03647 211.8338,0 7.9728,3.51981 102.7077,51.49114 212.1441,0 112.9521,53.17711 209.4956,1.29554 212.1521,0.18044 v -44.40125 c -12.6332,5.55034 -99.7057,50.25181 -212.1521,0 -100.3586,46.35637 -182.2218,13.13714 -212.1549,0 v 0 0 0 0 c -11.301,4.99575 -102.0682,50.53576 -211.823,0 -7.312,2.95487 -97.5308,51.93777 -211.8233,0 v 0 0 h -0.3397 v 0 c -11.6275,4.99575 -102.7104,50.25181 -211.82316,0 -7.64646,3.14269 -100.67162,51.93777 -212.14678,0 -19.62708,8.32329 -101.8275,49.12931 -212.16023,0 -111.5474,51.93777 -205.16663,2.95487 -212.14686,0 v 0 z m 0,-84.93959 0,-0.003 v 0 0 c -5.65857,2.40322 -99.08515,51.93925 -212.157559,0 -21.946676,9.80516 -111.849719,48.28782 -212.152211,0 v 44.22526 c 115.9431458,52.33263 210.817181,0.73798 212.152211,0 107.528869,50.93063 202.844329,4.43819 212.157559,0 104.12303,50.37012 200.18226,5.54591 212.14686,0 112.84764,50.93063 202.51256,4.43819 212.16023,0 111.97811,52.61214 210.48262,0.73798 212.14678,0 110.11876,52.33263 207.17606,2.2228 212.16286,0 107.7296,53.1756 210.8307,0.55164 211.8233,0 111.7774,52.33263 207.8394,2.03793 211.8338,0 7.9728,3.51832 102.7077,51.48965 212.1441,0 112.9521,53.1756 209.4956,1.29552 212.1521,0.18486 v -44.40716 c -12.6332,5.54886 -99.7057,50.25181 -212.1521,0 -100.3586,46.35931 -182.2218,13.13566 -212.1549,0 v 0 0 0 0 c -11.301,4.99575 -102.0682,50.53131 -211.823,0 -7.312,2.95782 -97.5308,51.93629 -211.8233,0 v 0 0 h -0.3397 v 0 c -11.6275,4.99575 -102.7104,50.25181 -211.82316,0 -7.64646,3.14267 -100.67162,51.93629 -212.14678,0 -19.62708,8.32477 -101.8275,49.1293 -212.16023,0 -111.5474,51.93629 -205.16663,2.95782 -212.14686,0 v 0 z m 0,-84.93665 0,-0.003 v 0 0 c -5.65857,2.40323 -99.08515,51.93629 -212.157559,0 -21.946676,9.80664 -111.849719,48.28931 -212.152211,0 v 44.2223 c 115.9431458,52.33265 210.817181,0.74243 212.152211,0 107.528869,50.93212 202.844329,4.44117 212.157559,0 104.12303,50.37161 200.18226,5.55331 212.14686,0 112.84764,50.93212 202.51256,4.44117 212.16023,0 111.97811,52.6151 210.48262,0.74243 212.14678,0 110.11876,52.33265 207.17606,2.2228 212.16286,0 107.7296,53.17562 210.8307,0.55756 211.8233,0 111.7774,52.33265 207.8394,2.03795 211.8338,0 7.9728,3.51833 102.7077,51.49262 212.1441,0 112.9521,53.17562 209.4956,1.29553 212.1521,0.18192 v -44.40127 c -12.6332,5.54888 -99.7057,50.25182 -212.1521,0 -100.3586,46.35638 -182.2218,13.13419 -212.1549,0 v 0 0 0 0 c -11.301,4.99282 -102.0682,50.53134 -211.823,0 -7.312,2.95782 -97.5308,51.93334 -211.8233,0 v 0 0 h -0.3397 v 0 c -11.6275,4.99282 -102.7104,50.25182 -211.82316,0 -7.64646,3.1427 -100.67162,51.93334 -212.14678,0 -19.62708,8.32627 -101.8275,49.12933 -212.16023,0 -111.5474,51.93334 -205.16663,2.95782 -212.14686,0 v 0 z m 0,-84.94254 0,-0.003 v 0 0 c -5.65857,2.4062 -99.08515,51.93925 -212.157559,0 -21.946676,9.80813 -111.849719,48.29227 -212.152211,0 v 44.22527 c 115.9431458,52.33559 210.817181,0.74093 212.152211,0 107.528869,50.93062 202.844329,4.44115 212.157559,0 104.12303,50.37012 200.18226,5.55331 212.14686,0 112.84764,50.93062 202.51256,4.44115 212.16023,0 111.97811,52.6151 210.48262,0.74093 212.14678,0 110.11876,52.33559 207.17606,2.22131 212.16286,0 107.7296,53.17708 210.8307,0.55607 211.8233,0 111.7774,52.33559 207.8394,2.03794 211.8338,0 7.9728,3.51683 102.7077,51.49113 212.1441,0 112.9521,53.17708 209.4956,1.29551 212.1521,0.18634 v -44.40865 c -12.6332,5.55183 -99.7057,50.25477 -212.1521,0 -100.3586,46.36081 -182.2218,13.13715 -212.1549,0 v 0 0 0 0 c -11.301,4.99575 -102.0682,50.53428 -211.823,0 -7.312,2.96077 -97.5308,51.93629 -211.8233,0 v 0 0 h -0.3397 v 0 c -11.6275,4.99575 -102.7104,50.25477 -211.82316,0 -7.64646,3.14564 -100.67162,51.93629 -212.14678,0 -19.62708,8.32479 -101.8275,49.13228 -212.16023,0 -111.5474,51.93629 -205.16663,2.96077 -212.14686,0 v 0 z m 0,-84.93958 0,-4.8e-4 c -5.66125,2.40371 -99.08784,51.93676 -212.157559,-10e-4 -21.946676,9.80368 -111.849719,48.2893 -212.152211,0 v 44.22377 c 115.9431458,52.3356 210.817181,0.74094 212.152211,0 107.528869,50.93063 202.844329,4.44117 212.157559,0 104.12303,50.3716 200.18226,5.55182 212.14686,0 112.84764,50.93063 202.51256,4.44117 212.16023,0 111.97811,52.6151 210.48262,0.74094 212.14678,0 110.11876,52.3356 207.17606,2.21984 212.16286,0 107.7296,53.17857 210.8307,0.5546 211.8233,0 111.7774,52.3356 207.8394,2.03794 211.8338,0 7.9728,3.51684 102.7077,51.49262 212.1441,0 112.9521,53.17857 209.4956,1.29849 212.1521,0.18487 v -44.40716 c -12.6332,5.54885 -99.7057,50.25328 -212.1521,0 -100.3586,46.35932 -182.2218,13.13862 -212.1549,0 v 0 0 0 0 c -11.301,4.99427 -102.0682,50.5328 -211.823,0 -7.312,2.95928 -97.5308,51.93628 -211.8233,0 v 0 0 h -0.3397 v 0 c -11.6275,4.99427 -102.7104,50.25328 -211.82316,0 -7.64646,3.1412 -100.67162,51.93628 -212.14678,0 -19.62708,8.32475 -101.8275,49.1308 -212.16023,0 -111.5474,51.93628 -205.16663,2.95928 -212.14686,0 v 0 z m 0,-84.93811 0,-4.8e-4 c -5.66125,2.40666 -99.08784,51.93676 -212.157559,-0.001 -21.946676,9.80662 -111.849719,48.28929 -212.152211,0 v 44.22673 c 115.9431458,52.33116 210.817181,0.73946 212.152211,0 107.528869,50.93063 202.844329,4.4382 212.157559,0 104.12303,50.36717 200.18226,5.55034 212.14686,0 112.84764,50.93063 202.51256,4.4382 212.16023,0 111.97811,52.61215 210.48262,0.73946 212.14678,0 110.11876,52.33116 207.17606,2.21837 212.16286,0 107.7296,53.17118 210.8307,0.55164 211.8233,0 111.7774,52.33116 207.8394,2.03498 211.8338,0 7.9728,3.51241 102.7077,51.48966 212.1441,0 112.9521,53.17118 209.4956,1.29405 212.1521,0.18192 V 460.0263 c -12.6332,5.55033 -99.7057,50.25179 -212.1521,0 -100.3586,46.35932 -182.2218,13.14009 -212.1549,0 v 0 0 0 0 c -11.301,4.99574 -102.0682,50.53132 -211.823,0 -7.312,2.95928 -97.5308,51.93628 -211.8233,0 v 0 0 h -0.3397 v 0 c -11.6275,4.99574 -102.7104,50.25179 -211.82316,0 -7.64646,3.14562 -100.67162,51.93628 -212.14678,0 -19.62708,8.32772 -101.8275,49.13228 -212.16023,0 -111.5474,51.93628 -205.16663,2.95928 -212.14686,0 v 0 z m 0,-84.93958 0,-0.003 v 0 0 c -5.65857,2.40766 -99.08515,51.93925 -212.157559,0 -21.946676,9.80958 -111.849719,48.29225 -212.152211,0 v 44.22526 c 115.9431458,52.33558 210.817181,0.74093 212.152211,0 107.528869,50.93211 202.844329,4.44116 212.157559,0 104.12303,50.36863 200.18226,5.55182 212.14686,0 112.84764,50.93211 202.51256,4.44116 212.16023,0 111.97811,52.6151 210.48262,0.74093 212.14678,0 110.11876,52.33558 207.17606,2.22132 212.16286,0 107.7296,53.17559 210.8307,0.55607 211.8233,0 111.7774,52.33558 207.8394,2.03793 211.8338,0 7.9728,3.51832 102.7077,51.49112 212.1441,0 112.9521,53.17559 209.4956,1.297 212.1521,0.18635 v -44.40864 c -12.6332,5.55033 -99.7057,50.25179 -212.1521,0 -100.3586,46.35932 -182.2218,13.13862 -212.1549,0 v 0 0 0 0 c -11.301,4.99575 -102.0682,50.53428 -211.823,0 -7.312,2.96076 -97.5308,51.93628 -211.8233,0 v 0 0 h -0.3397 v 0 c -11.6275,4.99575 -102.7104,50.25179 -211.82316,0 -7.64646,3.14414 -100.67162,51.93628 -212.14678,0 -19.62708,8.32624 -101.8275,49.12931 -212.16023,0 -111.5474,51.93628 -205.16663,2.96076 -212.14686,0 v 0 z m 0,-84.93813 0,-4.8e-4 c -5.66125,2.4037 -99.08784,51.93529 -212.157559,-10e-4 -21.946676,9.80664 -111.849719,48.28931 -212.152211,0 v 44.22377 c 115.9431458,52.3356 210.817181,0.74093 212.152211,0 107.528869,50.93065 202.844329,4.44117 212.157559,0 104.12303,50.37013 200.18226,5.55331 212.14686,0 112.84764,50.93065 202.51256,4.44117 212.16023,0 111.97811,52.61512 210.48262,0.74093 212.14678,0 110.11876,52.3356 207.17606,2.22133 212.15766,0 107.7295,53.17562 210.8306,0.55608 211.823,0 111.7775,52.3356 207.8394,2.03943 211.8285,0 7.9783,3.51686 102.7131,51.49263 212.1495,0 112.9521,53.17562 209.501,1.29849 212.1524,0.18488 v -44.40717 c -12.6334,5.54887 -99.7059,50.25033 -212.1524,0 -100.3559,46.35785 -182.2219,13.13862 -212.1547,0 v 0 0 0 0 c -11.3011,4.99576 -102.0684,50.53279 -211.8233,0 -7.3065,2.95929 -97.5306,51.93628 -211.823,0 v 0 0 h -0.3398 v 0 c -11.6276,4.99576 -102.7051,50.25033 -211.81786,0 -7.64646,3.14416 -100.67162,51.93628 -212.14678,0 -19.62708,8.32774 -101.8275,49.12932 -212.16023,0 -111.5474,51.93628 -205.16663,2.95929 -212.14686,0 v 0 z m 0,-84.9396 0,-0.004 v 0 0 c -5.65857,2.4047 -99.08515,51.94073 -212.157559,0 -21.946676,9.80812 -111.849719,48.29375 -212.152211,0 v 44.22674 c 115.9431458,52.33411 210.817181,0.73946 212.152211,0 107.528869,50.93062 202.844329,4.43968 212.157559,0 104.12303,50.3716 200.18226,5.55183 212.14686,0 112.84764,50.93062 202.51256,4.43968 212.16023,0 111.97811,52.61363 210.48262,0.73946 212.14678,0 110.11346,52.33411 207.17606,2.21985 212.15236,0 107.7295,53.17709 210.8304,0.55609 211.8283,0 111.7775,52.33411 207.8341,2.03794 211.8285,0 7.9756,3.51536 102.7078,51.49114 212.1495,0 112.9521,53.17709 209.4955,1.29701 212.1524,0.18486 v -44.40717 c -12.639,5.54886 -99.7114,50.25477 -212.1524,0 -100.3613,46.36081 -182.2246,13.13862 -212.1601,0 v 0 0 0 0 c -11.301,4.99428 -102.0683,50.53281 -211.8179,0 -7.312,2.95931 -97.536,51.93777 -211.8283,0 v 0 0 h -0.3399 v 0 c -11.6276,4.99428 -102.6997,50.25477 -211.81246,0 -7.64646,3.14417 -100.67162,51.93777 -212.14678,0 -19.62708,8.32775 -101.8275,49.1308 -212.16023,0 -111.5474,51.93777 -205.16663,2.95931 -212.14686,0 v 0 z m 0,-84.94105 0,-0.003 v 0 0 c -5.65857,2.40618 -99.08515,51.9422 -212.157559,0 -21.946676,9.81108 -111.849719,48.29373 -212.152211,0 v 44.22526 c 115.9431458,52.3341 210.817181,0.73945 212.152211,0 107.528869,50.93063 202.844329,4.44263 212.157559,0 104.12303,50.37159 200.18226,5.55181 212.14686,0 112.84764,50.93063 202.51256,4.44263 212.16023,0 111.97811,52.61361 210.48262,0.73945 212.14678,0 110.11346,52.3341 207.17606,2.22131 212.15236,0 107.7295,53.17709 210.8304,0.55607 211.8283,0 111.7775,52.3341 207.8341,2.03941 211.8285,0 7.9756,3.51684 102.7078,51.49112 212.1495,0 112.9521,53.17709 209.4955,1.29552 212.1524,0.18633 v -44.40863 c -12.639,5.55032 -99.7114,50.25625 -212.1524,0 -100.3613,46.36228 -182.2246,13.13713 -212.1601,0 v 0 0 0 0 c -11.301,4.99574 -102.0683,50.53575 -211.8179,0 -7.312,2.95929 -97.536,51.93924 -211.8283,0 v 0 0 h -0.3399 v 0 c -11.6276,4.99574 -102.6997,50.25625 -211.81246,0 -7.64646,3.14416 -100.67162,51.93924 -212.14678,0 -19.62708,8.32625 -101.8275,49.13227 -212.16023,0 -111.5474,51.93924 -205.16663,2.95929 -212.14686,0 v 0 z m 0,-84.938108 0,-0.003 v 0 0 c -5.65857,2.40619 -99.08515,51.937773 -212.157559,0 -21.946676,9.808113 -111.849719,48.292255 -212.152211,0 v 44.225255 c 115.9431458,52.332636 210.817181,0.740932 212.152211,0 107.528869,50.930636 202.844329,4.441164 212.157559,0 104.12303,50.370126 200.18226,5.551823 212.14686,0 112.84764,50.930636 202.51256,4.441164 212.16023,0 111.97811,52.612146 210.48262,0.740932 212.14678,0 110.11346,52.332636 207.17606,2.218372 212.15236,0 107.7295,53.175596 210.8304,0.554601 211.8283,0 111.7775,52.332636 207.8341,2.034988 211.8285,0 7.9756,3.518324 102.7078,51.489646 212.1495,0 112.9521,53.175596 209.4955,1.295531 212.1524,0.184872 V 35.329832 c -12.639,5.548859 -99.7114,50.253278 -212.1524,0 -100.3613,46.357843 -182.2246,13.137129 -212.1601,0 v 0 0 0 0 c -11.301,4.992785 -102.0683,50.534278 -211.8179,0 -7.312,2.959287 -97.536,51.93481 -211.8283,0 v 0 0 h -0.3399 v 0 c -11.6276,4.992785 -102.6997,50.253278 -211.81246,0 -7.64646,3.145632 -100.67162,51.93481 -212.14678,0 -19.62708,8.324764 -101.8275,49.129312 -212.16023,0 -111.5474,51.93481 -205.16663,2.959287 -212.14686,0 v 0 z m 0,-84.936638 0,-0.003 v 0 0 c -5.65857,2.404716 -99.08515,51.937769 -212.157559,0 -21.946676,9.809602 -111.849719,48.2922546 -212.152211,0 v 44.2237813 c 115.9431458,52.3385497 210.817181,0.7424198 212.152211,0 107.528869,50.9321087 202.844329,4.44116288 212.157559,0 104.12303,50.3715997 200.18226,5.55182208 212.14686,0 112.84764,50.9321087 202.51256,4.44116288 212.16023,0 111.97811,52.6151117 210.48262,0.7424198 212.14678,0 110.11346,52.3385497 207.17606,2.2213185 212.15236,0 107.7348,53.1770947 210.8304,0.5560745 211.8283,0 111.7775,52.3385497 207.8341,2.0394232 211.8285,0 7.9756,3.5183231 102.7078,51.4940927 212.1495,0 112.9521,53.1756057 209.4955,1.2970046 212.1524,0.1863453 V -49.606806 c -12.639,5.548858 -99.7059,50.25033048 -212.1524,0 -100.3613,46.3563696 -182.2246,13.137143 -212.1601,0 v 0 0 0 0 c -11.301,4.994274 -102.063,50.53280278 -211.8179,0 -7.312,2.957812 -97.5306,51.934806 -211.8283,0 v 0 0 h -0.3399 v 0 c -11.6276,4.994274 -102.6997,50.25033048 -211.81246,0 -7.64646,3.145632 -100.67162,51.934806 -212.14678,0 -19.62708,8.326251 -101.8275,49.12931138 -212.16023,0 -111.5474,51.934806 -205.16663,2.957812 -212.14686,0 v 0 z"
   id="path2"
   inkscape:connector-curvature="0"
   style="fill:#2d7c90;stroke:#000000;stroke-width:1.98915529;stroke-linecap:round;stroke-linejoin:round;fill-opacity:1" />
</svg>